<svg fill="none" xmlns="http://www.w3.org/2000/svg" viewBox="0 0 24 24">
    <path d="M20.484 6.844H16.22v4.218H5.906v5.157c0 .518.42.937.938.937v3.328A3.516 3.516 0 0010.359 24h3.282a3.516 3.516 0 003.515-3.516v-1.922h-4.198a.716.716 0 01-.723-.669.703.703 0 01.703-.737h7.546A3.516 3.516 0 0024 13.641v-3.282a3.516 3.516 0 00-3.516-3.515z" fill="#FEEF55"/>
    <path d="M20.484 6.844H16.22v4.218H12V24h1.64a3.516 3.516 0 003.516-3.516v-1.922h-4.198a.716.716 0 01-.723-.669.703.703 0 01.703-.737h7.546A3.516 3.516 0 0024 13.641v-3.282a3.516 3.516 0 00-3.516-3.515z" fill="#FEDC00"/>
    <path d="M8.719 12h6.562c1.036 0 1.875-.84 1.875-1.875v-6.61A3.52 3.52 0 0013.641 0h-3.282a3.52 3.52 0 00-3.515 3.516v1.921h4.218a.703.703 0 110 1.407H3.516A3.52 3.52 0 000 10.359v3.282a3.52 3.52 0 003.516 3.515h3.328v-3.281c0-1.036.84-1.875 1.875-1.875z" fill="#78E0EA"/>
    <path d="M13.64 0H12v12h3.281c1.036 0 1.875-.84 1.875-1.875v-6.61A3.52 3.52 0 0013.641 0z" fill="#3CCCDD"/>
    <path d="M11.063 2.86a.703.703 0 11-1.407 0 .703.703 0 011.406 0z" fill="#5A5A6E"/>
    <path d="M14.344 21.14a.703.703 0 11-1.407 0 .703.703 0 011.407 0z" fill="#46465A"/>
</svg>
