<svg viewBox="0 0 800 600" fill="none" xmlns="http://www.w3.org/2000/svg"><path d="M800 40H0V10C0 4.5 4.5 0 10 0h780.6c5.2 0 9.4 4.2 9.4 9.4V40z" fill="#98989D"/><path d="M24.5 29a7.5 7.5 0 100-15 7.5 7.5 0 000 15z" fill="#FF3B30"/><path d="M47.5 29a7.5 7.5 0 100-15 7.5 7.5 0 000 15z" fill="#FFCC30"/><path d="M70.5 29a7.5 7.5 0 100-15 7.5 7.5 0 000 15z" fill="#28CD41"/><path d="M800 40H0v560h800V40z" fill="#232323"/><path d="M400 445c65.722 0 119-53.278 119-119 0-65.722-53.278-119-119-119-65.722 0-119 53.278-119 119 0 65.722 53.278 119 119 119z" fill="#28CD41"/><path opacity=".65" d="M383.8 379.5c-1.3 1.3-3.1 2.1-5 2.1s-3.7-.7-5-2.1L334 339.7c-4.1-4.1-4.1-10.8 0-14.9l5-5c4.1-4.1 10.8-4.1 14.9 0l24.8 24.8 67.1-67.1c4.1-4.1 10.8-4.1 14.9 0l5 5c4.1 4.1 4.1 10.8 0 14.9l-81.9 82.1z" fill="#fff"/></svg>
