<svg viewBox="0 0 263 197" fill="none" xmlns="http://www.w3.org/2000/svg"><path d="M263 13.133H0v-9.85A3.295 3.295 0 013.288 0H259.91A3.085 3.085 0 01263 3.086v10.047z" fill="#98989D"/><path d="M8.054 9.522a2.464 2.464 0 002.466-2.463 2.464 2.464 0 00-2.466-2.462A2.464 2.464 0 005.59 7.059a2.464 2.464 0 002.465 2.463z" fill="#FF3B30"/><path d="M15.616 9.522a2.464 2.464 0 002.465-2.463 2.464 2.464 0 00-2.465-2.462 2.464 2.464 0 00-2.466 2.462 2.464 2.464 0 002.466 2.463z" fill="#FFCC30"/><path d="M23.177 9.522a2.464 2.464 0 002.466-2.463 2.464 2.464 0 00-2.466-2.462 2.464 2.464 0 00-2.466 2.462 2.464 2.464 0 002.466 2.463z" fill="#28CD41"/><path d="M263 13.133H0V197h263V13.133z" fill="#232323"/><path d="M131.5 160.555c30.684 0 55.559-24.843 55.559-55.488 0-30.646-24.875-55.489-55.559-55.489-30.684 0-55.559 24.843-55.559 55.489 0 30.645 24.875 55.488 55.559 55.488z" stroke="#fff" stroke-miterlimit="10" stroke-dasharray="12.06 12.06"/><path d="M131.5 135.93c17.067 0 30.903-13.818 30.903-30.863 0-17.046-13.836-30.864-30.903-30.864s-30.902 13.818-30.902 30.864c0 17.045 13.835 30.863 30.902 30.863z" fill="#8A4DEE"/><path opacity=".75" d="M145.669 98.434h-2.498v-3.316c0-6.37-5.194-11.557-11.572-11.557-6.378 0-11.572 5.188-11.572 11.557v3.316h-2.499a.813.813 0 00-.821.821v20.652a3.308 3.308 0 003.32 3.316h23.177a3.308 3.308 0 003.32-3.316V99.255c-.033-.46-.394-.82-.855-.82zm-11.604 17.271a.827.827 0 01-.198.656.894.894 0 01-.624.263h-3.321a.894.894 0 01-.624-.263c-.165-.164-.23-.394-.198-.656l.526-4.695a3.238 3.238 0 01-1.347-2.66 3.308 3.308 0 013.32-3.316 3.308 3.308 0 013.32 3.316 3.236 3.236 0 01-1.348 2.66l.494 4.695zm4.142-17.27h-13.249v-3.317c0-3.644 2.959-6.6 6.608-6.6a6.604 6.604 0 016.608 6.6v3.316h.033z" fill="#fff"/><path d="M171.936 78.143c8.171 0 14.794-6.615 14.794-14.775s-6.623-14.775-14.794-14.775c-8.17 0-14.793 6.615-14.793 14.775s6.623 14.775 14.793 14.775z" fill="#8A4DEE"/><path d="M171.937 55.587c-4.274 0-7.726 3.382-7.726 7.551 0 3.35 2.203 6.173 5.26 7.191.394.066.526-.164.526-.361v-1.28c-2.137.459-2.597-1.019-2.597-1.019-.362-.886-.855-1.116-.855-1.116-.69-.46.066-.46.066-.46.789.066 1.183.788 1.183.788.691 1.15 1.808.821 2.236.624.066-.492.263-.82.493-1.017-1.71-.198-3.518-.854-3.518-3.743 0-.821.296-1.51.789-2.036-.098-.197-.361-.952.066-2.003 0 0 .658-.197 2.104.788a7.675 7.675 0 011.94-.263c.657 0 1.315.099 1.939.263 1.48-.985 2.104-.788 2.104-.788.428 1.05.165 1.806.066 2.003.493.525.789 1.215.789 2.035 0 2.923-1.808 3.546-3.518 3.743.263.23.526.69.526 1.412v2.069c0 .197.132.427.526.361 3.091-.985 5.293-3.841 5.293-7.158.033-4.202-3.419-7.584-7.692-7.584z" fill="#fff"/><path d="M94.022 78.8c8.171 0 14.794-6.615 14.794-14.775S102.193 49.25 94.022 49.25c-8.17 0-14.794 6.615-14.794 14.775S85.852 78.8 94.022 78.8z" fill="#8A4DEE"/><path d="M86.888 62.22l4.142 3.94v-3.94l-1.775-5.386c-.066-.262-.526-.262-.592 0l-1.775 5.385zM101.025 62.22l-4.143 3.94v-3.94l1.743-5.418c.066-.263.526-.263.591 0l1.809 5.417z" fill="#E24329"/><path d="M93.957 71.183l-6.608-8.964h13.183l-6.575 8.964z" fill="#E24329"/><path d="M93.956 71.183l-2.893-8.964h-4.142l1.775 4.794 5.26 4.17z" fill="#FC6D26"/><path d="M93.957 71.183l2.893-8.964h4.142l-1.776 4.794-5.26 4.17z" fill="#FC6D26"/><path d="M86.888 62.22l-.789 2.692c-.065.262 0 .525.198.656l7.66 5.516-7.069-8.865zM101.025 62.22l.855 2.692c.065.262 0 .525-.198.656l-7.66 5.549 7.003-8.898z" fill="#FCA326"/></svg>
