<svg  viewBox="0 0 800 600" fill="none" xmlns="http://www.w3.org/2000/svg"><path d="M800 40H0V10C0 4.5 4.5 0 10 0h780.6c5.2 0 9.4 4.2 9.4 9.4V40z" fill="#98989D"/><path d="M24.5 29a7.5 7.5 0 100-15 7.5 7.5 0 000 15z" fill="#FF3B30"/><path d="M47.5 29a7.5 7.5 0 100-15 7.5 7.5 0 000 15z" fill="#FFCC30"/><path d="M70.5 29a7.5 7.5 0 100-15 7.5 7.5 0 000 15z" fill="#28CD41"/><path d="M800 40H0v560h800V40z" fill="#232323"/><path d="M250.7 424H65.6c-3.1 0-5.6-2.5-5.6-5.6V220.9c0-3.1 2.5-5.6 5.6-5.6h185.1c3.1 0 5.6 2.5 5.6 5.6v197.6c0 3-2.5 5.5-5.6 5.5z" fill="#424242"/><path opacity=".87" d="M178.3 235.6H73.9c-2.3 0-4.2-1.9-4.2-4.2 0-2.3 1.9-4.2 4.2-4.2h104.4c2.3 0 4.2 1.9 4.2 4.2 0 2.4-1.9 4.2-4.2 4.2zM218.7 263.1H71.8c-1.2 0-2.1-.9-2.1-2.1 0-1.2.9-2.1 2.1-2.1h146.9c1.2 0 2.1.9 2.1 2.1 0 1.2-1 2.1-2.1 2.1zM206.2 272.9H71.7c-1.1 0-2-.9-2-2v-.2c0-1.1.9-2 2-2h134.5c1.1 0 2 .9 2 2v.2c0 1.1-.8 2-2 2zM184.1 281.2H71.6c-1 0-1.8-.8-1.8-1.8v-.5c0-1 .8-1.8 1.8-1.8h112.6c1 0 1.8.8 1.8 1.8v.5c0 1-.8 1.8-1.9 1.8zM157.2 289.6H71.3c-.9 0-1.6-.7-1.6-1.6v-1c0-.9.7-1.6 1.6-1.6h85.9c.9 0 1.6.7 1.6 1.6v1c0 .8-.7 1.6-1.6 1.6z" fill="#fff"/><path d="M77.2 245.7l-2.4-.4-1.1-2.2c-.1-.2-.4-.2-.4 0l-1.1 2.2-2.4.4c-.2 0-.3.3-.1.4l1.7 1.8-.4 2.5c0 .2.2.3.4.2l2.1-1.2 2.1 1.2c.2.1.4 0 .4-.2l-.4-2.5 1.7-1.8c.2-.2.1-.4-.1-.4z" fill="#FFC107"/><path fill-rule="evenodd" clip-rule="evenodd" d="M88.5 244c1.7 0 3.1 1.4 3.1 3.1 0 1.7-1.4 3.1-3.1 3.1-.8 0-1.6-.3-2.2-.9-.6-.6-.9-1.4-.9-2.2 0-1.7 1.4-3.1 3.1-3.1zm0-.7c-2.1 0-3.8 1.7-3.8 3.8 0 2.1 1.7 3.8 3.8 3.8 2.1 0 3.8-1.7 3.8-3.8 0-2.1-1.7-3.8-3.8-3.8zm.6 1.6H88v2.7h1.1v-2.7zm0 3.3H88v1.1h1.1v-1.1z" fill="#E25443"/><path d="M104.1 243.3c-.2 0-.5.1-.7.2-.2.1-.3.4-.4.6-.1.2 0 .5 0 .7.1.2.3.4.5.5v.7l-1.1 1.1-1.1-1.1v-.7c.2-.1.4-.3.5-.5.1-.2.1-.5 0-.7-.1-.2-.2-.4-.4-.6-.2-.1-.4-.2-.7-.2-.2 0-.5.1-.7.2-.2.1-.3.4-.4.6-.1.2 0 .5 0 .7.1.2.3.4.5.5v1l1.6 1.6v1c-.2.1-.4.3-.5.5-.1.2-.1.5 0 .7.1.2.2.4.4.6.2.1.4.2.7.2.2 0 .5-.1.7-.2.2-.1.3-.4.4-.6.1-.2 0-.5 0-.7-.1-.2-.3-.4-.5-.5v-1l1.6-1.6v-1c.2-.1.4-.3.5-.5.1-.2.1-.5 0-.7-.1-.2-.2-.4-.4-.6 0-.1-.3-.2-.5-.2zm-3.3 1.7c-.4 0-.7-.3-.7-.7 0-.4.3-.7.7-.7.4 0 .7.3.7.7 0 .4-.3.7-.7.7zm1.7 5.5c-.4 0-.7-.3-.7-.7 0-.4.3-.7.7-.7.4 0 .7.3.7.7-.1.4-.4.7-.7.7zm1.6-5.5c-.4 0-.7-.3-.7-.7 0-.4.3-.7.7-.7.4 0 .7.3.7.7 0 .4-.3.7-.7.7z" fill="#fff" fill-opacity=".87"/><path opacity=".87" d="M237.5 245.1a8.4 8.4 0 100-16.8 8.4 8.4 0 000 16.8z" fill="#fff"/><path d="M473.7 424H288.6c-3.1 0-5.6-2.5-5.6-5.6V220.9c0-3.1 2.5-5.6 5.6-5.6h185.1c3.1 0 5.6 2.5 5.6 5.6v197.6c0 3-2.5 5.5-5.6 5.5z" fill="#424242"/><path opacity=".87" d="M401.3 235.6H296.9c-2.3 0-4.2-1.9-4.2-4.2 0-2.3 1.9-4.2 4.2-4.2h104.4c2.3 0 4.2 1.9 4.2 4.2 0 2.4-1.9 4.2-4.2 4.2zM441.7 263.1H294.8c-1.2 0-2.1-.9-2.1-2.1 0-1.2.9-2.1 2.1-2.1h146.9c1.2 0 2.1.9 2.1 2.1 0 1.2-1 2.1-2.1 2.1zM429.2 272.9H294.7c-1.1 0-2-.9-2-2v-.2c0-1.1.9-2 2-2h134.5c1.1 0 2 .9 2 2v.2c0 1.1-.8 2-2 2zM407.1 281.2H294.6c-1 0-1.8-.8-1.8-1.8v-.5c0-1 .8-1.8 1.8-1.8h112.6c1 0 1.8.8 1.8 1.8v.5c0 1-.8 1.8-1.9 1.8zM380.2 289.6h-85.9c-.9 0-1.6-.7-1.6-1.6v-1c0-.9.7-1.6 1.6-1.6h85.9c.9 0 1.6.7 1.6 1.6v1c0 .8-.7 1.6-1.6 1.6z" fill="#fff"/><path d="M300.2 245.7l-2.4-.4-1.1-2.2c-.1-.2-.4-.2-.4 0l-1.1 2.2-2.4.4c-.2 0-.3.3-.1.4l1.7 1.8-.4 2.5c0 .2.2.3.4.2l2.1-1.2 2.1 1.2c.2.1.4 0 .4-.2l-.4-2.5 1.7-1.8c.2-.2.1-.4-.1-.4z" fill="#FFC107"/><path fill-rule="evenodd" clip-rule="evenodd" d="M311.5 244c1.7 0 3.1 1.4 3.1 3.1 0 1.7-1.4 3.1-3.1 3.1-.8 0-1.6-.3-2.2-.9-.6-.6-.9-1.4-.9-2.2 0-1.7 1.4-3.1 3.1-3.1zm0-.7c-2.1 0-3.8 1.7-3.8 3.8 0 2.1 1.7 3.8 3.8 3.8 2.1 0 3.8-1.7 3.8-3.8 0-2.1-1.7-3.8-3.8-3.8zm.6 1.6H311v2.7h1.1v-2.7zm0 3.3H311v1.1h1.1v-1.1z" fill="#E25443"/><path d="M327.1 243.3c-.2 0-.5.1-.7.2-.2.1-.3.4-.4.6-.1.2 0 .5 0 .7.1.2.3.4.5.5v.7l-1.1 1.1-1.1-1.1v-.7c.2-.1.4-.3.5-.5.1-.2.1-.5 0-.7-.1-.2-.2-.4-.4-.6-.2-.1-.4-.2-.7-.2-.2 0-.5.1-.7.2-.2.1-.3.4-.4.6-.1.2 0 .5 0 .7.1.2.3.4.5.5v1l1.6 1.6v1c-.2.1-.4.3-.5.5-.1.2-.1.5 0 .7.1.2.2.4.4.6.2.1.4.2.7.2.2 0 .5-.1.7-.2.2-.1.3-.4.4-.6.1-.2 0-.5 0-.7-.1-.2-.3-.4-.5-.5v-1l1.6-1.6v-1c.2-.1.4-.3.5-.5.1-.2.1-.5 0-.7-.1-.2-.2-.4-.4-.6 0-.1-.3-.2-.5-.2zm-3.3 1.7c-.4 0-.7-.3-.7-.7 0-.4.3-.7.7-.7.4 0 .7.3.7.7 0 .4-.3.7-.7.7zm1.7 5.5c-.4 0-.7-.3-.7-.7 0-.4.3-.7.7-.7.4 0 .7.3.7.7-.1.4-.4.7-.7.7zm1.6-5.5c-.4 0-.7-.3-.7-.7 0-.4.3-.7.7-.7.4 0 .7.3.7.7 0 .4-.3.7-.7.7z" fill="#fff" fill-opacity=".87"/><path opacity=".87" d="M460.5 245.1a8.4 8.4 0 100-16.8 8.4 8.4 0 000 16.8z" fill="#fff"/><path d="M702.7 424H517.6c-3.1 0-5.6-2.5-5.6-5.6V220.9c0-3.1 2.5-5.6 5.6-5.6h185.1c3.1 0 5.6 2.5 5.6 5.6v197.6c0 3-2.5 5.5-5.6 5.5z" fill="#424242"/><path opacity=".87" d="M630.3 235.6H525.9c-2.3 0-4.2-1.9-4.2-4.2 0-2.3 1.9-4.2 4.2-4.2h104.4c2.3 0 4.2 1.9 4.2 4.2 0 2.4-1.9 4.2-4.2 4.2zM670.7 263.1H523.8c-1.2 0-2.1-.9-2.1-2.1 0-1.2.9-2.1 2.1-2.1h146.9c1.2 0 2.1.9 2.1 2.1 0 1.2-1 2.1-2.1 2.1zM658.2 272.9H523.7c-1.1 0-2-.9-2-2v-.2c0-1.1.9-2 2-2h134.5c1.1 0 2 .9 2 2v.2c0 1.1-.8 2-2 2zM636.1 281.2H523.6c-1 0-1.8-.8-1.8-1.8v-.5c0-1 .8-1.8 1.8-1.8h112.6c1 0 1.8.8 1.8 1.8v.5c0 1-.8 1.8-1.9 1.8zM609.2 289.6h-85.9c-.9 0-1.6-.7-1.6-1.6v-1c0-.9.7-1.6 1.6-1.6h85.9c.9 0 1.6.7 1.6 1.6v1c0 .8-.7 1.6-1.6 1.6z" fill="#fff"/><path d="M529.2 245.7l-2.4-.4-1.1-2.2c-.1-.2-.4-.2-.4 0l-1.1 2.2-2.4.4c-.2 0-.3.3-.1.4l1.7 1.8-.4 2.5c0 .2.2.3.4.2l2.1-1.2 2.1 1.2c.2.1.4 0 .4-.2l-.4-2.5 1.7-1.8c.2-.2.1-.4-.1-.4z" fill="#FFC107"/><path fill-rule="evenodd" clip-rule="evenodd" d="M540.5 244c1.7 0 3.1 1.4 3.1 3.1 0 1.7-1.4 3.1-3.1 3.1-.8 0-1.6-.3-2.2-.9-.6-.6-.9-1.4-.9-2.2 0-1.7 1.4-3.1 3.1-3.1zm0-.7c-2.1 0-3.8 1.7-3.8 3.8 0 2.1 1.7 3.8 3.8 3.8 2.1 0 3.8-1.7 3.8-3.8 0-2.1-1.7-3.8-3.8-3.8zm.6 1.6H540v2.7h1.1v-2.7zm0 3.3H540v1.1h1.1v-1.1z" fill="#E25443"/><path d="M556.1 243.3c-.2 0-.5.1-.7.2-.2.1-.3.4-.4.6-.1.2 0 .5 0 .7.1.2.3.4.5.5v.7l-1.1 1.1-1.1-1.1v-.7c.2-.1.4-.3.5-.5.1-.2.1-.5 0-.7-.1-.2-.2-.4-.4-.6-.2-.1-.4-.2-.7-.2-.2 0-.5.1-.7.2-.2.1-.3.4-.4.6-.1.2 0 .5 0 .7.1.2.3.4.5.5v1l1.6 1.6v1c-.2.1-.4.3-.5.5-.1.2-.1.5 0 .7.1.2.2.4.4.6.2.1.4.2.7.2.2 0 .5-.1.7-.2.2-.1.3-.4.4-.6.1-.2 0-.5 0-.7 0-.2-.3-.4-.5-.5v-1l1.6-1.6v-1c.2-.1.4-.3.5-.5.1-.2.1-.5 0-.7-.1-.2-.2-.4-.4-.6 0-.1-.3-.2-.5-.2zm-3.3 1.7c-.4 0-.7-.3-.7-.7 0-.4.3-.7.7-.7.4 0 .7.3.7.7 0 .4-.3.7-.7.7zm1.7 5.5c-.4 0-.7-.3-.7-.7 0-.4.3-.7.7-.7.4 0 .7.3.7.7-.1.4-.4.7-.7.7zm1.6-5.5c-.4 0-.7-.3-.7-.7 0-.4.3-.7.7-.7.4 0 .7.3.7.7 0 .4-.3.7-.7.7z" fill="#fff" fill-opacity=".87"/><path opacity=".87" d="M689.5 245.1a8.4 8.4 0 100-16.8 8.4 8.4 0 000 16.8z" fill="#fff"/></svg>
