<svg viewBox="0 0 8 8" fill="none" xmlns="http://www.w3.org/2000/svg"><path d="M8.05 4.248L7.598 2.86 6.704.106a.155.155 0 00-.293 0l-.894 2.752h-2.97L1.653.106a.154.154 0 00-.293 0L.468 2.858l-.452 1.39a.308.308 0 00.111.344L4.033 7.43l3.904-2.838a.308.308 0 00.113-.344" fill="#FC6D26"/><path d="M4.033 7.428l1.485-4.57h-2.97l1.485 4.57z" fill="#E24329"/><path d="M4.033 7.428l-1.486-4.57H.469l3.564 4.57z" fill="#FC6D26"/><path d="M.467 2.86L.015 4.247a.308.308 0 00.111.344L4.033 7.43.467 2.86z" fill="#FCA326"/><path d="M.468 2.86h2.08L1.654.106a.155.155 0 00-.293 0L.468 2.86z" fill="#E24329"/><path d="M4.033 7.428l1.485-4.57h2.081l-3.566 4.57z" fill="#FC6D26"/><path d="M7.598 2.86l.452 1.388a.307.307 0 01-.112.344L4.033 7.428l3.564-4.569h.001z" fill="#FCA326"/><path d="M7.599 2.86h-2.08L6.411.106a.154.154 0 01.293 0l.894 2.752z" fill="#E24329"/></svg>