<svg viewBox="0 0 945 698" fill="none" xmlns="http://www.w3.org/2000/svg"><g clip-path="url(#clip0)"><path d="M.792-12.432C39.813 121.142 362.623 190.884 487.963 365.83c125.341 174.946 325.175 180.856 393.758 258.873 68.582 78.016 65.035 72.106 65.035 72.106v-709.24H.792z" fill="#6334B0" fill-opacity=".7" stroke="#6334B0" stroke-opacity=".7" stroke-miterlimit="10"/></g><g clip-path="url(#clip1)"><path d="M19.35-24.804C58.373 108.769 381.183 178.51 506.523 353.457c125.34 174.946 325.175 180.856 393.757 258.872 68.583 78.017 65.035 72.106 65.035 72.106v-709.24H19.351z" fill="#6334B0" fill-opacity=".8"/></g><path d="M64.422-35.409c39.021 133.573 361.831 203.315 487.171 378.261 125.34 174.946 325.175 180.856 393.757 258.872 68.58 78.017 65.04 72.107 65.04 72.107v-709.24H64.422z" fill="#8A4DEE"/><defs><clipPath id="clip0"><path fill="#fff" transform="translate(0 -13.023)" d="M0 0h947.371v710.528H0z"/></clipPath><clipPath id="clip1"><path fill="#fff" transform="translate(18.559 -25.395)" d="M0 0h947.371v710.528H0z"/></clipPath></defs></svg>