<svg fill="none" viewBox="0 0 438 324">
    <g clip-path="url(#prefix__clip0)">
        <path d="M112.189 23.495c1.445 2.158 2.889 4.333 4.316 6.491-1.427-2.158-2.871-4.316-4.316-6.491zm9.764-3.307a1430.96 1430.96 0 014.316 6.492c-1.444-2.159-2.872-4.334-4.316-6.492z" fill="#24292E"/>
        <path d="M106.707 49.513c.208 2.82 1.026 5.308 2.471 7.466l-4.891-7.362c-1.444-2.158-2.262-4.646-2.471-7.466 1.636 2.454 3.272 4.908 4.891 7.362-1.636-2.454-3.255-4.908-4.891-7.362-.279-3.863.714-7.64 2.976-11.277 1.636 2.454 3.255 4.908 4.891 7.344-1.636-2.454-3.255-4.908-4.891-7.362 1.88-3.028 4.334-5.5 7.397-7.379 3.063-1.88 6.318-2.993 9.764-3.324a1430.96 1430.96 0 014.316 6.492c.192.278.383.574.575.852-1.636-2.453-3.255-4.907-4.891-7.361 3.446-.348 6.666.174 9.642 1.549 1.636 2.454 3.255 4.908 4.891 7.361-2.994-1.374-6.196-1.897-9.642-1.549-3.447.331-6.701 1.445-9.764 3.325a22.205 22.205 0 00-7.397 7.379c-2.263 3.672-3.255 7.448-2.976 11.312zm5.482-26.018l.244.365.261.383.261.383.261.4.278.4.279.418.278.418.279.418.278.417.279.418.278.418.279.417.278.418.279.4.261.4.261.4.035.053.034.052.035.052.035.053.035.052.035.052.034.052.035.052.035.053.035.052.035.052.034.052.035.053.035.052.035.052.035.052-.035-.052-.035-.052-.035-.052-.035-.053-.034-.052-.035-.052-.035-.052-.035-.053-.035-.052-.034-.052-.035-.052-.035-.052-.035-.053-.035-.052-.034-.052-.035-.052-.261-.4-.261-.4-.279-.401-.278-.418-.279-.418-.278-.417-.279-.418-.278-.418-.279-.417-.278-.418-.279-.418-.278-.4-.261-.4-.261-.383-.261-.383-.244-.365z" fill="#24292E"/>
        <path d="M118.646 24.678l4.891 7.362c-1.654 1.34-2.611 2.802-2.907 4.368l-4.89-7.362c.295-1.566 1.27-3.028 2.906-4.368z" fill="#fff"/>
        <path d="M121.431 27.236l4.89 7.362c-.243-.383-.626-.853-1.131-1.427-.435-.487-.835-.835-1.201-1.01a1.172 1.172 0 00-.452-.121l-4.891-7.362c.139.017.296.052.453.122.365.174.765.505 1.2 1.01.505.591.888 1.06 1.132 1.426z" fill="#fff"/>
        <path d="M136.486 29.099c-1.636-2.454-3.255-4.908-4.891-7.362 1.636 2.454 3.272 4.908 4.891 7.362z" fill="#24292E"/>
        <path d="M105.158 39.558l4.89 7.362-.261.191-4.89-7.361.261-.192z" fill="#fff"/>
        <path d="M121.431 27.236l4.89 7.362c.053.087.105.157.14.226.243.4.417.749.539 1.01l-4.89-7.362c-.122-.278-.314-.61-.54-1.01-.035-.052-.087-.139-.139-.226z" fill="#24292E"/>
        <path d="M104.897 39.75l4.89 7.361v.383l-4.89-7.362v-.383zm.939-.018l4.891 7.362c-.296-.14-.505-.21-.679-.174l-4.89-7.362c.174-.017.382.052.678.174z" fill="#fff"/>
        <path d="M104.897 40.132l4.89 7.362.122.4-4.891-7.361-.121-.4z" fill="#fff"/>
        <path d="M105.018 40.533l4.891 7.361.087.174-4.891-7.361-.087-.174zm1.219-.523l4.89 7.345-.4-.261-4.891-7.362.401.279z" fill="#fff"/>
        <path d="M110.066 48.155c-.018-.035-.035-.07-.07-.087l-4.891-7.361c.018.035.053.052.07.087 1.462 2.21 3.411 5.151 4.891 7.361z" fill="#24292E"/>
        <path d="M106.689 40.515l4.891 7.362c-.157-.226-.296-.4-.453-.522l-4.89-7.362c.139.14.296.296.452.522z" fill="#fff"/>
        <path d="M111.58 47.877c.087.14.191.296.278.487-1.636-2.454-3.254-4.908-4.89-7.361-.087-.192-.192-.349-.279-.488 1.462 2.21 3.411 5.152 4.891 7.362z" fill="#24292E"/>
        <path d="M112.085 48.973c-1.636-2.454-3.255-4.907-4.891-7.361a3.628 3.628 0 00-.226-.61c1.636 2.454 3.254 4.908 4.89 7.362.105.192.174.4.227.61z" fill="#24292E"/>
        <path d="M105.175 40.811l4.891 7.362c.191.278.296.678.348 1.166.052.557.052 1.027-.018 1.427l-4.89-7.362c.069-.4.069-.87.017-1.427-.052-.487-.174-.887-.348-1.166z" fill="#fff"/>
        <path d="M105.506 43.387l4.89 7.361-.104.61-4.891-7.362.105-.61zm9.746 5.482l-4.89-7.362c-.053-.07-.105-.156-.157-.226a5.387 5.387 0 01-.818-2.245c-.105-.783-.018-1.723.278-2.802.296-1.079.836-2.245 1.602-3.463 1.096-1.758 2.575-2.994 4.473-3.707l4.89 7.361c-1.897.714-3.376 1.95-4.473 3.707-.766 1.236-1.305 2.385-1.601 3.464-.296 1.079-.383 2.019-.278 2.802.104.8.365 1.548.818 2.245.069.07.104.139.156.226z" fill="#fff"/>
        <path d="M112.259 51.027c-1.636-2.454-3.255-4.908-4.891-7.362-.052-.313-.087-.661-.052-1.044a3.282 3.282 0 00-.105-1.01c1.636 2.455 3.255 4.908 4.891 7.362.087.314.122.644.104 1.01-.034.365-.017.713.053 1.044z" fill="#24292E"/>
        <path d="M105.401 43.996l4.891 7.362c-.139.626-.122 1.218.122 1.757l-4.891-7.361c-.244-.54-.261-1.132-.122-1.758z" fill="#fff"/>
        <path d="M112.259 51.027c.052.313.156.609.295.87-1.636-2.454-3.254-4.908-4.89-7.362a2.857 2.857 0 01-.296-.87c.818 1.236 1.653 2.471 2.471 3.707.401.61.801 1.218 1.219 1.828.087.139.226.33.313.47.052.07.104.156.157.243.052.07.104.157.156.226.087.14.209.314.296.453.07.14.209.296.279.435z" fill="#24292E"/>
        <path d="M112.554 51.88c.053.104.105.191.175.295l-4.891-7.361c-.052-.087-.122-.192-.174-.296.818 1.218 1.636 2.454 2.454 3.672.418.644.853 1.27 1.27 1.915.296.452.592.905.905 1.34.053.139.174.313.261.435z" fill="#24292E"/>
        <path d="M110.71 53.672l-4.891-7.361a3.46 3.46 0 01-.296-.557l4.891 7.361c.087.21.191.4.296.557z" fill="#fff"/>
        <path d="M116.61 50.418a7.78 7.78 0 01-1.34-1.55l-4.891-7.36a8.471 8.471 0 001.34 1.548c1.619 2.454 3.255 4.908 4.891 7.362z" fill="#24292E"/>
        <path d="M130.342 32.283l4.89 7.362c-1.079-.992-2.349-1.81-3.759-2.454a16.27 16.27 0 00-4.455-1.323l-4.891-7.361a16.28 16.28 0 014.455 1.322c1.41.645 2.681 1.445 3.76 2.454z" fill="#fff"/>
        <path d="M142.943 34.511c-1.567-2.35-3.708-4.16-6.457-5.412-.923-1.393-1.845-2.768-2.768-4.16a4.71 4.71 0 01-.313-.487c-.191-.279-.435-.662-.627-.94a4.08 4.08 0 00-.313-.452l-.592-.888c-.087-.122-.278-.279-.278-.418 2.75 1.27 4.891 3.063 6.457 5.413a1100.95 1100.95 0 014.891 7.344z" fill="#24292E"/>
        <path d="M131.491 32.127l4.89 7.344-1.149.157-4.89-7.345 1.149-.156z" fill="#fff"/>
        <path d="M110.71 53.672l-4.891-7.361c.191.295.435.556.731.748.452.33.922.609 1.392.835l4.891 7.362a12.77 12.77 0 01-1.392-.835 2.708 2.708 0 01-.731-.749zm7.832-1.862a13.142 13.142 0 01-1.95-1.392c-1.636-2.454-3.254-4.908-4.89-7.362.539.47 1.183.94 1.949 1.392 1.479 2.21 3.429 5.152 4.891 7.362z" fill="#24292E"/>
        <path d="M112.711 52.175l-4.891-7.361c.244.365.557.644.94.818.47.209.888.383 1.288.452.383.087.766.122 1.166.122l4.891 7.362c-.4 0-.783-.035-1.166-.122a7.2 7.2 0 01-1.288-.453 2.464 2.464 0 01-.94-.818z" fill="#fff"/>
        <path d="M113.651 44.448l4.891 7.362c-.905.261-1.706.853-2.437 1.775l-4.891-7.361c.731-.905 1.532-1.497 2.437-1.776z" fill="#fff"/>
        <path d="M109.178 48.399l4.891 7.362a6.684 6.684 0 01-1.236-.47l-4.891-7.362c.488.209.888.366 1.236.47z" fill="#24292E"/>
        <path d="M134.049 32.075l4.891 7.361a15.29 15.29 0 00-2.559.052l-4.89-7.361a15.275 15.275 0 012.558-.053z" fill="#fff"/>
        <path d="M109.718 48.52l4.89 7.362-.539-.139-4.891-7.344.54.122z" fill="#24292E"/>
        <path d="M109.178 56.979l-4.891-7.362c.54.818 1.166 1.584 1.897 2.315l4.891 7.362a17.014 17.014 0 01-1.897-2.315zm.54-8.459l4.89 7.362c-.348.557-.731 1.201-1.183 1.95l-4.891-7.362c.453-.73.835-1.392 1.184-1.95zm26.211-15.871l4.89 7.361a1.231 1.231 0 00-.383-.26c-.348-.157-.852-.262-1.496-.296l-4.891-7.362c.644.052 1.149.14 1.497.296.156.07.296.157.383.26z" fill="#fff"/>
        <path d="M107.142 52.175l4.89 7.362a.883.883 0 01-.661-.052 2.698 2.698 0 01-.296-.174l-4.891-7.362c.105.07.192.14.296.174a.88.88 0 00.662.053z" fill="#fff"/>
        <path d="M108.534 50.47l4.891 7.362c-.453.748-.679 1.13-.714 1.183a1.14 1.14 0 01-.679.522l-4.89-7.361c.296-.087.522-.262.678-.523.035-.052.262-.435.714-1.183z" fill="#fff"/>
        <path d="M140.837 39.993c-.383 1.914-1.236 3.446-2.576 4.508l-4.891-7.362c1.358-1.08 2.211-2.593 2.576-4.508 1.462 2.228 4.369 4.769 4.891 7.362zm-18.762 7.849l4.89 7.362a16.75 16.75 0 01-2.436-.627l-4.891-7.361c.853.295 1.671.487 2.437.626z" fill="#24292E"/>
        <path d="M119.638 47.216l4.891 7.361c.33.992.069 2.21-.801 3.603l-4.891-7.362c.853-1.392 1.114-2.61.801-3.602zm7.606.034l4.89 7.362a7.872 7.872 0 01-2.628.644 10.1 10.1 0 01-2.541-.07l-4.89-7.361c.766.121 1.601.156 2.541.07a7.209 7.209 0 002.628-.645z" fill="#24292E"/>
        <path d="M133.353 37.156l4.89 7.362c.366 1.758 0 3.515-1.096 5.273-.766 1.236-1.584 2.263-2.454 3.08-.888.819-1.741 1.41-2.559 1.758l-4.89-7.361c.818-.348 1.671-.94 2.558-1.758.871-.8 1.706-1.845 2.454-3.08 1.097-1.758 1.462-3.516 1.097-5.274zm-14.516 13.662l4.891 7.344-2.854 4.612-4.891-7.361 2.854-4.595z" fill="#24292E"/>
        <path d="M115.983 55.413l4.891 7.361c-.157.261-.209.522-.139.766l-4.891-7.362c-.07-.243-.017-.504.139-.765z" fill="#24292E"/>
        <path d="M120.822 63.714l-4.891-7.362a.53.53 0 01-.07-.174l4.891 7.362c0 .07.035.122.07.174z" fill="#24292E"/>
        <path d="M120.822 63.714l-4.891-7.362a.74.74 0 00.331.261c.104.053.209.087.33.105l4.891 7.361a3.796 3.796 0 01-.331-.104.737.737 0 01-.33-.261z" fill="#fff"/>
        <path d="M131.595 21.737c2.993 1.375 5.273 3.394 6.857 6.056 1.601 2.646 2.332 5.604 2.228 8.841-.122 3.237-1.131 6.387-3.011 9.398-2.262 3.655-5.343 6.457-9.224 8.406-3.899 1.95-7.85 2.715-11.853 2.297a3.765 3.765 0 01-.33-.104c-.227-.105-.366-.244-.401-.435-.069-.244-.034-.505.14-.766l2.854-4.594c.87-1.393 1.131-2.611.8-3.603a17.51 17.51 0 002.437.627c.766.121 1.601.156 2.541.07a7.872 7.872 0 002.628-.645c.818-.348 1.671-.94 2.559-1.758.87-.8 1.705-1.844 2.454-3.08 1.096-1.758 1.444-3.498 1.096-5.273 1.358-1.08 2.211-2.593 2.576-4.508a1.23 1.23 0 00-.383-.26c-.348-.157-.853-.262-1.497-.297a15.268 15.268 0 00-2.558.053l-1.149.156c-1.079-.992-2.349-1.81-3.759-2.454a16.266 16.266 0 00-4.456-1.322c-.122-.279-.313-.61-.539-1.01-.244-.4-.662-.957-1.271-1.67-.435-.488-.835-.836-1.201-1.01a1.172 1.172 0 00-.452-.122c-1.654 1.34-2.611 2.802-2.907 4.369-1.897.713-3.376 1.949-4.473 3.707-.765 1.235-1.305 2.384-1.601 3.463-.296 1.079-.383 2.019-.278 2.802.104.8.365 1.549.818 2.245.452.73.94 1.305 1.496 1.792.54.47 1.184.94 1.95 1.393-.905.26-1.706.852-2.437 1.775-.4 0-.783-.035-1.166-.122a7.193 7.193 0 01-1.288-.453c-.47-.208-.853-.591-1.114-1.113-.278-.523-.4-1.166-.348-1.915a3.37 3.37 0 00-.331-1.618c-.243-.47-.487-.8-.731-1.01l-.4-.26c-.296-.14-.505-.21-.679-.175l-.261.192v.383l.105.4.087.174c.226.296.365.713.417 1.253.053.557.053 1.027-.017 1.427l-.104.61c-.14.626-.122 1.217.121 1.757.227.557.575.992 1.027 1.323.453.33.923.609 1.393.835.487.226.887.383 1.235.47l.54.139c-.348.557-.731 1.2-1.184 1.95-.452.747-.678 1.13-.713 1.183a1.14 1.14 0 01-.679.522.883.883 0 01-.661-.053 2.536 2.536 0 01-.296-.173c-2.628-2.646-4.073-5.9-4.369-9.781-.278-3.864.714-7.64 2.977-11.278 1.879-3.028 4.333-5.5 7.396-7.379 3.064-1.88 6.318-2.993 9.764-3.324 3.429-.4 6.631.122 9.625 1.497z" fill="#fff"/>
        <path d="M138.052 27.15l4.891 7.361c.139.209.278.418.4.644 1.601 2.645 2.332 5.604 2.228 8.84-.122 3.238-1.132 6.388-3.011 9.399-2.263 3.654-5.343 6.456-9.225 8.406-3.898 1.949-7.849 2.715-11.852 2.297l-4.891-7.362c4.003.418 7.954-.365 11.853-2.297 3.881-1.95 6.961-4.751 9.224-8.406 1.88-3.028 2.872-6.178 3.011-9.398.104-3.237-.627-6.195-2.228-8.84a8.112 8.112 0 00-.4-.645z" fill="#fff"/>
        <path d="M433.109 152.35l4.891 7.344-30.162 48.643-4.89-7.345 30.161-48.642zM102.495 0l330.597 152.35-30.162 48.642L72.35 48.642 102.495 0zm25.95 54.438c3.881-1.95 6.962-4.751 9.224-8.406 1.88-3.028 2.872-6.178 3.011-9.398.104-3.237-.626-6.195-2.228-8.84-1.584-2.663-3.863-4.682-6.857-6.057s-6.196-1.897-9.642-1.549c-3.446.33-6.701 1.445-9.764 3.324a22.213 22.213 0 00-7.397 7.38c-2.262 3.654-3.255 7.413-2.976 11.277.296 3.88 1.74 7.135 4.368 9.78.105.07.192.14.296.174a.879.879 0 00.662.053c.296-.087.522-.262.678-.523.035-.052.279-.435.714-1.183.453-.73.853-1.392 1.184-1.95l-.54-.138a6.677 6.677 0 01-1.236-.47c-.47-.244-.94-.522-1.392-.836-.453-.313-.801-.765-1.027-1.322-.244-.54-.261-1.132-.122-1.758l.105-.61c.069-.4.069-.87.017-1.426-.052-.54-.191-.975-.418-1.253l-.087-.174-.104-.4v-.384l.261-.191c.157-.017.383.035.679.174l.4.261c.244.192.487.522.731 1.01.244.504.366 1.026.331 1.618-.035.748.069 1.375.348 1.914.261.523.644.888 1.114 1.114.47.21.887.383 1.288.453.383.087.765.122 1.166.122.731-.905 1.531-1.497 2.436-1.776a13.182 13.182 0 01-1.949-1.392 7.737 7.737 0 01-1.497-1.792 5.415 5.415 0 01-.818-2.245c-.104-.784-.017-1.723.279-2.802.296-1.08.835-2.245 1.601-3.464 1.096-1.758 2.576-2.993 4.473-3.707.278-1.566 1.253-3.028 2.906-4.368a1.6 1.6 0 01.453.122c.365.174.766.505 1.201 1.01.609.713 1.027 1.252 1.27 1.67.244.4.418.748.54 1.01a16.26 16.26 0 014.455 1.322c1.41.644 2.681 1.462 3.76 2.454l1.149-.157a15.346 15.346 0 012.558-.052c.644.052 1.149.14 1.497.296.156.07.296.157.383.261-.383 1.914-1.236 3.446-2.576 4.508.365 1.757 0 3.515-1.097 5.273-.765 1.235-1.583 2.262-2.454 3.08-.887.818-1.74 1.41-2.558 1.758a7.878 7.878 0 01-2.628.644c-.94.087-1.775.052-2.541-.07a16.718 16.718 0 01-2.437-.626c.331.992.07 2.21-.801 3.602l-2.854 4.595c-.156.26-.209.522-.139.766.052.191.174.33.4.435.105.052.209.087.331.104 4.02.47 7.971-.313 11.87-2.245z" fill="#24292E"/>
        <path d="M402.947 200.992l4.891 7.345L77.241 56.004l-4.89-7.361 330.596 152.349z" fill="#24292E"/>
        <path d="M83.367 68.97c-.905-1.34-1.792-2.698-2.697-4.038a8.452 8.452 0 011.636-.818c1.636 2.454 3.254 4.908 4.89 7.362a7.57 7.57 0 00-1.636.818c-.713-1.114-1.462-2.228-2.193-3.324zm4.038 2.419c-.07.017-.14.052-.209.07-1.636-2.454-3.254-4.908-4.89-7.362.07-.017.139-.052.208-.07 1.636 2.472 3.273 4.908 4.891 7.362z" fill="#fff"/>
        <path d="M72.42 48.956l4.89 7.362-23.165 37.347-4.89-7.344L72.42 48.956z" fill="#D1D5DA"/>
        <path d="M89.198 71.023a7.85 7.85 0 00-1.775.366c-1.636-2.454-3.255-4.908-4.891-7.362a7.857 7.857 0 011.775-.365 771.488 771.488 0 004.89 7.361zm-6.04 3.707c-.139.227-.26.435-.365.662-1.636-2.454-3.255-4.908-4.89-7.362a4.79 4.79 0 01.365-.661c1.618 2.454 3.254 4.907 4.89 7.361-1.636-2.454-3.254-4.907-4.89-7.361a7.941 7.941 0 012.419-2.454c1.636 2.454 3.255 4.908 4.89 7.361a7.76 7.76 0 00-2.419 2.454z" fill="#fff"/>
        <path d="M82.793 75.392c-.07.139-.14.278-.192.435-1.636-2.454-3.254-4.908-4.89-7.362.052-.14.122-.278.191-.435 1.619 2.454 3.255 4.908 4.89 7.362z" fill="#fff"/>
        <path d="M82.602 75.81a5.775 5.775 0 00-.349 1.148c-1.636-2.454-3.254-4.908-4.89-7.362.07-.383.191-.765.348-1.148 1.636 2.471 3.255 4.908 4.89 7.361zm-.349 1.183c-1.636-2.454-3.254-4.908-4.89-7.362v-.017c1.636 2.454 3.254 4.908 4.89 7.361v.018z" fill="#fff"/>
        <path d="M82.253 76.993a5.731 5.731 0 00-.034 2.175c-.087-.122-.192-.296-.279-.417l-.592-.888c-.191-.278-.435-.644-.626-.922a45.939 45.939 0 01-.644-.957 4.684 4.684 0 01-.314-.488c-.817-1.218-1.635-2.454-2.453-3.672a5.736 5.736 0 01.034-2.175c.07.104.157.226.21.33 1.2 1.81 2.401 3.62 3.602 5.413.017.035.052.07.07.104.173.261.348.505.504.766.105.14.192.296.296.435.017.035.052.07.07.104.052.053.139.122.156.192zm6.945-5.97c-1.636-2.453-3.255-4.907-4.89-7.361a6.436 6.436 0 013.184.54c.366.173.696.365.992.591 1.636 2.454 3.255 4.908 4.89 7.362a6.227 6.227 0 00-.991-.592c-1.01-.453-2.106-.61-3.185-.54z" fill="#fff"/>
        <path d="M88.623 66.83l4.891 7.36a4.345 4.345 0 00-1.81-1.53c-2.524-1.167-5.9-.035-7.501 2.558-.749 1.253-1.01 2.662-.68 3.915.123.488.314.94.593 1.358l-4.891-7.362c-.278-.4-.47-.87-.592-1.357-.33-1.27-.07-2.68.679-3.916 1.601-2.593 4.978-3.724 7.501-2.558a4.14 4.14 0 011.81 1.531z" fill="#53B96A"/>
        <path d="M86.761 67.055l4.89 7.362-1.618-.748-4.89-7.344 1.618.73zm-1.619-.73l4.891 7.344-2.54 4.107-4.892-7.362 2.541-4.09zm9.398 7.065a5.23 5.23 0 00-1.183-1.218c-1.636-2.454-3.254-4.908-4.89-7.361.47.347.853.765 1.183 1.218 1.636 2.454 3.272 4.907 4.89 7.361zm-12.443-2.14l4.89 7.344-1.026 1.653-4.891-7.361 1.027-1.636z" fill="#fff"/>
        <path d="M86.761 67.055l4.89 7.362-2.54 4.09-4.89-7.344 2.54-4.108zm-2.541 4.108l4.89 7.344-1.618-.731-4.89-7.362 1.618.749z" fill="#53B96A"/>
        <path d="M83.698 71.98l4.908 7.362-1.619-.748-4.89-7.344 1.601.73z" fill="#fff"/>
        <path d="M82.689 73.634l4.89 7.344-1.618-.73-4.891-7.362 1.619.748z" fill="#53B96A"/>
        <path d="M83.698 71.98l4.908 7.362-1.027 1.636-4.89-7.344 1.009-1.653z" fill="#53B96A"/>
        <path d="M85.908 82.005a4.366 4.366 0 01-1.792-1.514l-4.891-7.362a4.24 4.24 0 001.793 1.514c2.54 1.166 5.917.018 7.501-2.558 1.636 2.454 3.255 4.908 4.89 7.362-1.635-2.454-3.254-4.908-4.89-7.362 1.114-1.792 1.079-3.811.122-5.273l4.89 7.362c.975 1.461.992 3.463-.121 5.273-1.602 2.575-4.96 3.724-7.502 2.558z" fill="#fff"/>
        <path d="M89.702 66.098l4.891 7.362c1.201 1.793 1.236 4.281-.14 6.474-1.966 3.168-6.108 4.577-9.224 3.133a5.28 5.28 0 01-2.227-1.88l-4.89-7.362a5.279 5.279 0 002.227 1.88c3.115 1.427 7.258.035 9.224-3.133 1.375-2.193 1.323-4.681.14-6.474z" fill="#53B96A"/>
        <path d="M94.593 73.46c-.017-.017-.035-.052-.052-.07-1.636-2.454-3.255-4.907-4.89-7.361.017.017.034.052.052.07 1.461 2.21 3.428 5.15 4.89 7.361zm-12.374 5.708c.121.731.4 1.41.8 2.02l-4.89-7.363a5.232 5.232 0 01-.801-2.018c.818 1.218 1.636 2.453 2.454 3.672.8 1.235 1.618 2.454 2.437 3.69z" fill="#fff"/>
        <path d="M82.601 70.414l2.541-4.09 1.62.731-2.542 4.108-1.619-.749z" fill="#53B96A"/>
        <path d="M87.475 64.219c3.115 1.427 4.055 5.186 2.088 8.353-1.966 3.168-6.109 4.578-9.224 3.133-3.115-1.427-4.055-5.169-2.089-8.336 1.984-3.168 6.11-4.595 9.225-3.15zM81 74.643c2.541 1.166 5.918.018 7.502-2.558 1.6-2.593.835-5.621-1.706-6.805-2.524-1.166-5.9-.034-7.501 2.559-.749 1.253-1.01 2.662-.68 3.915A4.239 4.239 0 0081 74.644z" fill="#53B96A"/>
        <path d="M81.07 72.886l1.027-1.636 1.601.73-1.01 1.654-1.618-.748z" fill="#53B96A"/>
        <path d="M98.23 81.674c-.852 1.375-.835 2.924-.086 4.038l-4.891-7.362c-.748-1.113-.766-2.662.087-4.037 1.619 2.454 3.255 4.907 4.89 7.361-1.635-2.454-3.254-4.907-4.89-7.361 1.236-1.984 3.812-2.872 5.76-1.967l4.892 7.362c-1.967-.905-4.526-.035-5.761 1.966z" fill="#fff"/>
        <path d="M98.144 85.712l-4.891-7.362c.33.488.8.905 1.392 1.184l4.891 7.361a3.235 3.235 0 01-1.392-1.183z" fill="#505458"/>
        <path d="M87.788 99.008c-.679 1.097-.661 2.332-.07 3.22l-4.89-7.362c-.592-.887-.61-2.123.07-3.22 1.618 2.472 3.254 4.908 4.89 7.362-1.636-2.454-3.255-4.907-4.89-7.361.991-1.584 3.045-2.298 4.594-1.567l4.89 7.362c-1.566-.714-3.62-.017-4.594 1.566z" fill="#fff"/>
        <path d="M87.7 102.245l-4.89-7.361c.261.4.644.73 1.114.94l4.89 7.361a2.826 2.826 0 01-1.113-.94z" fill="#798087"/>
        <path d="M140.541 91.438l4.89 7.361-41.44-19.091-4.89-7.362 41.44 19.092zm1.392 1.183l4.891 7.362a3.453 3.453 0 00-1.393-1.184l-4.89-7.361a3.45 3.45 0 011.392 1.183z" fill="#fff"/>
        <path d="M136.085 98.625l4.891 7.362-41.44-19.092-4.89-7.361 41.439 19.091z" fill="#505458"/>
        <path d="M141.933 92.621l4.891 7.362c.748 1.114.766 2.663-.087 4.037-1.219 1.984-3.812 2.872-5.761 1.967l-4.891-7.362c1.967.905 4.543.018 5.761-1.966.853-1.375.836-2.924.087-4.038z" fill="#505458"/>
        <path d="M140.541 91.438c1.967.905 2.541 3.237 1.305 5.22-1.218 1.985-3.811 2.872-5.761 1.967l-41.44-19.091c-1.966-.905-2.54-3.237-1.305-5.221 1.236-1.984 3.812-2.872 5.76-1.967l41.441 19.092z" fill="#505458"/>
        <path d="M151.297 119.492l4.89 7.362-63.804-29.412-4.89-7.344 63.804 29.394z" fill="#fff"/>
        <path d="M152.428 120.449l4.891 7.362a2.671 2.671 0 00-1.132-.957l-4.89-7.362a2.78 2.78 0 011.131.957z" fill="#fff"/>
        <path d="M147.729 125.235l4.908 7.344-63.822-29.394-4.89-7.362 63.804 29.412z" fill="#798087"/>
        <path d="M152.428 120.449l4.891 7.362c.591.888.609 2.123-.07 3.22-.992 1.583-3.046 2.279-4.612 1.566l-4.891-7.362c1.567.714 3.638.035 4.612-1.566.679-1.097.662-2.332.07-3.22z" fill="#798087"/>
        <path d="M363.248 193.666l4.891 7.361-3.046 4.925-4.891-7.361 3.046-4.925z" fill="#fff"/>
        <path d="M363.857 193.961l4.891 7.345-3.046 4.925-4.891-7.344 3.046-4.926z" fill="#586069"/>
        <path d="M371.498 196.694l4.89 7.344-7.257-3.341-4.891-7.345 7.258 3.342z" fill="#fff"/>
        <path d="M371.115 197.303l4.908 7.344-7.275-3.341-4.891-7.345 7.258 3.342z" fill="#586069"/>
        <path d="M364.24 193.352l4.891 7.362c-.331-.157-.784-.017-.992.331l-4.891-7.362c.209-.348.661-.487.992-.331zm-1.619 6.37l4.891 7.344-1.81-.835-4.891-7.344 1.81.835z" fill="#fff"/>
        <path d="M361.629 200.053l4.891 7.361-1.201-.557-4.891-7.361 1.201.557z" fill="#586069"/>
        <path d="M365.075 206.649l-4.89-7.362a.634.634 0 01.017-.696l4.891 7.361a.636.636 0 00-.018.697z" fill="#fff"/>
        <path d="M365.075 206.649l-4.89-7.362a.474.474 0 00.226.191l4.891 7.362a.586.586 0 01-.227-.191z" fill="#586069"/>
        <path d="M361.629 200.053l4.891 7.361-1.323 2.141-4.89-7.344 1.322-2.158z" fill="#fff"/>
        <path d="M362.621 199.722l4.891 7.344-.748 1.236-4.908-7.362.765-1.218z" fill="#586069"/>
        <path d="M363.84 200.279l4.89 7.344-1.966.679-4.908-7.362 1.984-.661z" fill="#fff"/>
        <path d="M363.753 201.027l4.89 7.362-3.446 1.166-4.89-7.344 3.446-1.184z" fill="#586069"/>
        <path d="M371.741 196.903l4.891 7.361a.58.58 0 00-.244-.209l-4.89-7.361a.577.577 0 01.243.209z" fill="#fff"/>
        <path d="M371.741 196.903l4.891 7.361a.637.637 0 010 .679l-4.891-7.362a.633.633 0 000-.678z" fill="#586069"/>
        <path d="M368.069 202.228l4.891 7.344-4.23-1.949-4.89-7.344 4.229 1.949z" fill="#fff"/>
        <path d="M371.115 197.303l4.908 7.344-3.063 4.925-4.891-7.344 3.046-4.925z" fill="#fff"/>
        <path d="M371.498 196.694c.33.156.435.557.226.887l-3.046 4.926c-.209.33-.661.487-.992.348l-3.933-1.81-3.446 1.166 1.322-2.141-1.201-.557c-.33-.156-.435-.574-.226-.905l3.046-4.925c.209-.331.661-.487.992-.331l7.258 3.342zm-3.429 5.534l3.046-4.925-7.258-3.342-3.046 4.926 1.81.835-.765 1.236 1.966-.679 4.247 1.949z" fill="#586069"/>
        <path d="M360.811 198.887l3.046-4.926 7.258 3.342-3.046 4.925-4.229-1.949-1.984.661.765-1.218-1.81-.835z" fill="#fff"/>
        <path d="M367.686 202.855l4.891 7.344-3.934-1.81-4.89-7.362 3.933 1.828zm4.038-5.274l4.908 7.362-3.063 4.925-4.891-7.361 3.046-4.926z" fill="#586069"/>
        <path d="M368.678 202.507l4.891 7.361c-.209.331-.662.487-.992.348l-4.891-7.361c.331.139.783-.018.992-.348z" fill="#586069"/>
        <path d="M373.778 201.689c1.444 2.158 2.889 4.333 4.316 6.491-1.445-2.158-2.872-4.316-4.316-6.491z" fill="#fff"/>
        <path d="M378.668 209.05c-.504.818-.487 1.741-.052 2.419l-4.891-7.361c-.452-.662-.452-1.584.053-2.419 1.618 2.453 3.254 4.907 4.89 7.361-1.636-2.454-3.254-4.908-4.89-7.361.731-1.184 2.297-1.723 3.463-1.184l4.891 7.362c-1.166-.54-2.733 0-3.464 1.183z" fill="#fff"/>
        <path d="M378.616 211.469l-4.891-7.361c.192.295.488.539.836.713l4.89 7.362c-.348-.174-.644-.418-.835-.714z" fill="#798087"/>
        <path d="M380.913 202.211l4.891 7.344-3.672-1.688-4.891-7.344 3.672 1.688z" fill="#fff"/>
        <path d="M381.732 202.907l4.89 7.361a1.85 1.85 0 00-.835-.696l-4.891-7.361c.366.156.644.4.836.696z" fill="#fff"/>
        <path d="M378.233 206.509l4.908 7.362-3.69-1.688-4.89-7.362 3.672 1.688z" fill="#798087"/>
        <path d="M381.731 202.907l4.891 7.361c.453.679.453 1.602-.052 2.437-.731 1.183-2.28 1.705-3.446 1.166l-4.891-7.362c1.166.54 2.698.018 3.446-1.166.522-.835.505-1.757.052-2.436z" fill="#798087"/>
        <path d="M380.913 202.211c1.167.539 1.515 1.949.766 3.132-.748 1.184-2.28 1.706-3.446 1.166l-3.672-1.688c-1.166-.539-1.532-1.932-.801-3.132.731-1.201 2.298-1.723 3.464-1.184l3.689 1.706z" fill="#798087"/>
        <path d="M401.607 200.662l4.891 7.344L77.31 56.318l-4.89-7.362 329.187 151.706z" fill="#D1D5DA"/>
        <path d="M72.42 48.956l329.187 151.688-23.165 37.348L49.255 86.322 72.42 48.955zm75.309 76.279c1.566.714 3.637.035 4.612-1.566.975-1.601.505-3.463-1.062-4.177L87.492 90.098c-1.566-.714-3.62-.018-4.595 1.566-.992 1.584-.522 3.446 1.045 4.177l63.787 29.394zM99.101 72.346c-1.967-.905-4.525-.017-5.761 1.967-1.218 1.984-.644 4.316 1.305 5.22l41.44 19.092c1.967.905 4.543.018 5.761-1.966 1.236-1.984.644-4.316-1.305-5.221l-41.44-19.092zm-18.745 3.359c3.116 1.427 7.258.035 9.225-3.133 1.966-3.167 1.026-6.926-2.089-8.353-3.115-1.427-7.258-.018-9.207 3.15-1.984 3.167-1.044 6.909 2.071 8.336zm288.322 126.802l3.046-4.926c.209-.33.104-.731-.226-.887l-7.258-3.342c-.331-.156-.783-.017-.992.331l-3.046 4.925c-.209.331-.104.749.226.905l1.201.557-1.322 2.141 3.446-1.166 3.933 1.81c.331.139.783-.018.992-.348zm9.555 4.002c1.166.54 2.698.018 3.446-1.166.731-1.183.401-2.593-.766-3.132l-3.672-1.688c-1.166-.54-2.732-.018-3.463 1.183-.731 1.183-.383 2.593.8 3.133l3.655 1.67z" fill="#fff"/>
        <path d="M378.442 238.01l4.891 7.361L54.145 93.665l-4.89-7.344L378.442 238.01z" fill="#fff"/>
        <path d="M72.159 47.93l330.597 152.349-24.053 38.792L48.106 86.721 72.159 47.93zm306.283 190.08l23.165-37.348L72.42 48.956 49.255 86.32l329.187 151.69z" fill="#D1D5DA"/>
        <path d="M86.813 65.298c2.541 1.166 3.307 4.211 1.706 6.805-1.601 2.575-4.96 3.724-7.501 2.558a4.247 4.247 0 01-2.385-2.872c-.33-1.27-.07-2.68.679-3.916 1.601-2.61 4.96-3.741 7.501-2.575zm-2.593 5.865l2.541-4.108-1.618-.748-2.541 4.107 1.618.749zm-1.531 2.471l1.009-1.636-1.619-.748-1.01 1.636 1.62.748z" fill="#fff"/>
        <path d="M151.297 119.492c1.566.714 2.036 2.593 1.061 4.177-.974 1.584-3.045 2.28-4.612 1.566L83.924 95.823c-1.566-.713-2.036-2.575-1.044-4.176.992-1.584 3.046-2.298 4.595-1.567l63.822 29.412z" fill="#798087"/>
        <path d="M401.607 200.662l4.891 7.344-23.165 37.365-4.891-7.361 23.165-37.348z" fill="#fff"/>
        <path d="M378.703 239.071l4.891 7.344L52.997 94.065l-4.891-7.344 330.597 152.35z" fill="#D1D5DA"/>
        <path d="M402.756 200.279l4.891 7.344-24.053 38.792-4.891-7.344 24.053-38.792z" fill="#D1D5DA"/>
        <path d="M59.871 112.479c.035-.244.052-.47.087-.714.087.122.157.244.244.348-.105.139-.226.244-.33.366z" fill="#fff"/>
        <path d="M59.958 111.782s.14-1.044.453-2.384c.365.557.73 1.114 1.114 1.671-.47.313-.923.661-1.323 1.061-.035-.052-.07-.121-.122-.174-.035-.052-.104-.104-.122-.174z" fill="#fff"/>
        <path d="M60.41 109.398c.21-.853.419-1.514.697-2.228.679 1.027 1.375 2.054 2.054 3.081a7.58 7.58 0 00-1.636.818c-.366-.557-.749-1.114-1.114-1.671z" fill="#fff"/>
        <path d="M61.107 107.17c.035-.087.07-.156.087-.243.714 1.079 1.445 2.158 2.158 3.254-.07.018-.14.052-.209.07-.661-1.027-1.357-2.054-2.036-3.081z" fill="#fff"/>
        <path d="M62.116 105.273c1.01 1.515 2.02 3.029 3.029 4.56a7.805 7.805 0 00-1.775.366c-.714-1.079-1.445-2.158-2.159-3.255.279-.696.54-1.183.905-1.671zm-1.706 4.125a27.722 27.722 0 00-.452 2.384c-1.549-2.332-3.098-4.664-4.664-6.996.4-.4.853-.766 1.323-1.061a634.503 634.503 0 013.794 5.673z" fill="#fff"/>
        <path d="M59.314 107.762c-.905-1.34-1.792-2.697-2.697-4.037a8.387 8.387 0 011.636-.818c.94 1.427 1.897 2.854 2.837 4.281a15.988 15.988 0 00-.697 2.228 54.487 54.487 0 00-1.079-1.654zm1.88-.818a.99.99 0 00-.087.244c-.94-1.427-1.897-2.854-2.837-4.281.07-.018.14-.053.209-.07.905 1.357 1.81 2.732 2.715 4.107z" fill="#fff"/>
        <path d="M48.367 87.748l4.89 7.362-23.165 37.348-4.89-7.345 23.165-37.365z" fill="#D1D5DA"/>
        <path d="M62.116 105.273a8.804 8.804 0 00-.905 1.671c-.47-.713-.94-1.427-1.41-2.123-.434-.661-.87-1.323-1.322-1.984a7.866 7.866 0 011.775-.365c.61.922 1.236 1.862 1.862 2.801zm-3.011 8.232a6.26 6.26 0 00-.365.662c-1.636-2.454-3.255-4.908-4.89-7.362.104-.226.226-.453.365-.661 1.636 2.471 3.254 4.925 4.89 7.361-1.636-2.454-3.254-4.907-4.89-7.361a7.036 7.036 0 011.096-1.375c.766 1.166 1.55 2.314 2.315 3.48.505.749.992 1.497 1.497 2.263.278.418.592.835.853 1.27v.053c-.035.226-.053.435-.087.661a6.283 6.283 0 00-.784 1.009zm-.365.679c-.07.139-.14.279-.192.435-1.636-2.454-3.254-4.908-4.89-7.362.052-.139.122-.278.191-.435 1.636 2.454 3.255 4.908 4.891 7.362z" fill="#fff"/>
        <path d="M58.548 114.602a8.068 8.068 0 00-.33 1.044c-1.636-2.454-3.255-4.908-4.89-7.362.069-.348.19-.696.33-1.044 1.636 2.454 3.255 4.908 4.89 7.362z" fill="#fff"/>
        <path d="M58.2 115.785c-1.636-2.454-3.254-4.908-4.89-7.361.017-.053.017-.087.035-.14 1.636 2.454 3.254 4.908 4.89 7.362a.328.328 0 00-.035.139zm3.916-10.512c.21-.278.662-.87 1.27-1.148.784-.348 1.358-.035 1.358-.035.227.191.383.574.557.818.087.122.192.296.279.435.487.731.975 1.479 1.48 2.21.748 1.132 1.513 2.263 2.262 3.394a6.238 6.238 0 00-.992-.592 6.44 6.44 0 00-3.185-.539l-3.029-4.543z" fill="#fff"/>
        <path d="M64.745 104.09c-.94-.348-1.758.017-2.646 1.183-.627-.939-1.236-1.862-1.862-2.801a6.44 6.44 0 013.185.539c.365.174.696.366.992.592.122.156.226.313.33.487zM58.2 115.785c-.296 1.514-.017 3.011.766 4.194l-4.89-7.361c-.784-1.184-1.08-2.68-.766-4.194l3.76 5.638c.19.279.382.575.574.853.052.07.104.157.156.226.018.035.052.07.07.105.017.034.052.069.07.104.034.07.104.157.139.209.034.07.104.139.121.226z" fill="#fff"/>
        <path d="M64.57 105.622l4.891 7.361a4.343 4.343 0 00-1.81-1.531c-2.524-1.166-5.9-.035-7.501 2.558-.749 1.253-1.01 2.663-.68 3.916.123.487.314.94.593 1.357l-4.891-7.361a4.144 4.144 0 01-.592-1.358c-.33-1.27-.07-2.68.68-3.916 1.6-2.593 4.977-3.724 7.5-2.558a4.14 4.14 0 011.81 1.532z" fill="#53B96A"/>
        <path d="M62.708 105.848l4.89 7.361-1.618-.748-4.89-7.362 1.618.749z" fill="#fff"/>
        <path d="M61.09 105.099l4.89 7.362-2.54 4.107-4.892-7.361 2.542-4.108zm3.655-1.009c.348.157.609.4.887.783.4.575.783 1.166 1.166 1.758.418.626.836 1.253 1.253 1.897.8 1.218 1.619 2.436 2.42 3.637a5.236 5.236 0 00-1.184-1.218 777.328 777.328 0 00-4.543-6.857zm.905.783c.017.018.017.035.034.052l4.874 7.31c-.018-.018-.035-.052-.053-.07a2564.366 2564.366 0 01-4.855-7.292z" fill="#fff"/>
        <path d="M65.65 104.873c-.262-.365-.54-.626-.836-.766-.07-.034-.07-.034-.383-.522a5.6 5.6 0 011.184 1.219c0 .034.017.052.035.069z" fill="#fff"/>
        <path d="M65.684 104.925c-.017-.035-.052-.069-.07-.104.018.017.035.052.053.069 0 .017 0 .035.017.035zm-7.64 5.117l4.89 7.344-1.026 1.636-4.891-7.344 1.027-1.636z" fill="#fff"/>
        <path d="M62.708 105.848l4.89 7.361-2.54 4.09-4.89-7.344 2.54-4.107zm-2.541 4.107l4.89 7.344-1.618-.731-4.89-7.361 1.618.748z" fill="#53B96A"/>
        <path d="M58.548 109.207l2.542-4.108 1.618.749-2.54 4.107-1.62-.748z" fill="#53B96A"/>
        <path d="M59.645 110.773l4.908 7.362-1.619-.749-4.89-7.344 1.601.731z" fill="#fff"/>
        <path d="M59.645 110.773l4.908 7.362-1.027 1.636-4.89-7.345 1.009-1.653z" fill="#53B96A"/>
        <path d="M57.017 111.678l1.027-1.636 1.601.731-1.01 1.653-1.618-.748z" fill="#53B96A"/>
        <path d="M58.636 112.426l4.89 7.345-1.618-.749-4.891-7.344 1.618.748z" fill="#53B96A"/>
        <path d="M61.855 120.797a4.365 4.365 0 01-1.792-1.514l-4.89-7.361a4.241 4.241 0 001.792 1.514c2.54 1.166 5.917.017 7.501-2.559 1.636 2.454 3.255 4.908 4.89 7.345-1.635-2.454-3.254-4.908-4.89-7.362 1.114-1.793 1.08-3.811.122-5.273l4.89 7.361c.975 1.462.993 3.464-.121 5.274-1.602 2.593-4.96 3.741-7.502 2.575z" fill="#fff"/>
        <path d="M62.76 104.073c2.541 1.166 3.307 4.211 1.706 6.804-1.601 2.576-4.96 3.725-7.501 2.559a4.246 4.246 0 01-2.385-2.872c-.33-1.27-.07-2.68.68-3.916 1.6-2.593 4.977-3.741 7.5-2.575zm-2.593 5.882l2.541-4.107-1.618-.749-2.542 4.108 1.62.748zm-1.532 2.471l1.01-1.636-1.619-.748-1.01 1.636 1.62.748z" fill="#fff"/>
        <path d="M65.65 104.891l4.89 7.361c1.201 1.793 1.236 4.282-.14 6.474-1.966 3.168-6.108 4.577-9.223 3.133a5.273 5.273 0 01-2.228-1.88l-4.89-7.361a5.279 5.279 0 002.227 1.879c3.115 1.427 7.258.035 9.224-3.132 1.375-2.193 1.34-4.682.14-6.474z" fill="#53B96A"/>
        <path d="M63.422 103.011c3.115 1.427 4.055 5.186 2.088 8.354-1.966 3.167-6.109 4.577-9.224 3.132-3.116-1.427-4.055-5.169-2.089-8.336 1.984-3.167 6.11-4.594 9.225-3.15zm-6.475 10.425c2.541 1.166 5.918.017 7.502-2.559 1.6-2.593.835-5.621-1.706-6.804-2.524-1.166-5.9-.035-7.501 2.558-.749 1.253-1.01 2.663-.68 3.916a4.239 4.239 0 002.385 2.889z" fill="#53B96A"/>
        <path d="M74.178 120.449c-.853 1.375-.836 2.924-.087 4.038l-4.891-7.362c-.748-1.114-.766-2.662.087-4.037a768.846 768.846 0 004.89 7.361c-1.635-2.454-3.254-4.907-4.89-7.361 1.236-1.984 3.812-2.872 5.76-1.967l4.892 7.362c-1.967-.888-4.526-.018-5.761 1.966z" fill="#fff"/>
        <path d="M74.09 124.504l-4.89-7.361c.33.487.8.905 1.392 1.183l4.891 7.362a3.338 3.338 0 01-1.392-1.184z" fill="#505458"/>
        <path d="M63.735 137.801c-.679 1.096-.661 2.332-.07 3.219l-4.89-7.362c-.592-.887-.61-2.123.07-3.219 1.618 2.454 3.254 4.908 4.89 7.362-1.636-2.454-3.255-4.908-4.89-7.362.992-1.584 3.045-2.297 4.594-1.566l4.89 7.361c-1.566-.713-3.62-.017-4.594 1.567z" fill="#fff"/>
        <path d="M63.648 141.038l-4.89-7.362c.26.4.643.731 1.113.94l4.89 7.361a2.832 2.832 0 01-1.113-.939z" fill="#798087"/>
        <path d="M116.488 130.23l4.891 7.362-41.44-19.109-4.891-7.345 41.44 19.092z" fill="#fff"/>
        <path d="M117.88 131.413l4.891 7.362a3.455 3.455 0 00-1.392-1.183l-4.891-7.362a3.441 3.441 0 011.392 1.183z" fill="#fff"/>
        <path d="M112.032 137.418l4.891 7.361-41.44-19.091-4.89-7.362 41.439 19.092z" fill="#505458"/>
        <path d="M117.88 131.413l4.891 7.362c.748 1.114.766 2.663-.087 4.038-1.218 1.984-3.812 2.871-5.761 1.966l-4.891-7.361c1.967.905 4.543.017 5.761-1.967.853-1.375.836-2.924.087-4.038z" fill="#505458"/>
        <path d="M116.488 130.23c1.967.905 2.541 3.237 1.305 5.221-1.218 1.984-3.811 2.872-5.761 1.967l-41.44-19.092c-1.966-.905-2.54-3.237-1.305-5.221 1.236-1.984 3.812-2.872 5.76-1.967l41.441 19.092z" fill="#505458"/>
        <path d="M127.244 158.284l4.89 7.345-63.804-29.395-4.89-7.361 63.804 29.411z" fill="#fff"/>
        <path d="M128.375 159.242l4.891 7.361a2.671 2.671 0 00-1.132-.957l-4.89-7.362c.487.227.853.557 1.131.958z" fill="#fff"/>
        <path d="M123.693 164.028l4.891 7.344-63.805-29.395-4.908-7.361 63.822 29.412z" fill="#798087"/>
        <path d="M128.375 159.242l4.891 7.361c.591.888.609 2.123-.07 3.22-.992 1.584-3.046 2.28-4.612 1.566l-4.891-7.361c1.567.713 3.638.034 4.612-1.567.679-1.096.662-2.332.07-3.219z" fill="#798087"/>
        <path d="M339.195 232.458l4.891 7.362-3.046 4.925-4.891-7.362 3.046-4.925z" fill="#fff"/>
        <path d="M339.804 232.736l4.908 7.362-3.063 4.925-4.891-7.344 3.046-4.943z" fill="#586069"/>
        <path d="M347.445 235.486l4.89 7.344-7.257-3.341-4.891-7.344 7.258 3.341z" fill="#fff"/>
        <path d="M347.062 236.095l4.908 7.344-7.258-3.341-4.908-7.362 7.258 3.359z" fill="#586069"/>
        <path d="M340.187 232.145l4.891 7.361c-.331-.156-.783-.017-.992.331l-4.891-7.362c.209-.348.661-.487.992-.33zm-1.619 6.369l4.891 7.345-1.81-.836-4.891-7.344 1.81.835z" fill="#fff"/>
        <path d="M337.576 238.845l4.891 7.362-1.201-.557-4.891-7.362 1.201.557z" fill="#586069"/>
        <path d="M341.022 245.441l-4.89-7.362a.634.634 0 01.017-.696l4.891 7.362a.671.671 0 00-.018.696z" fill="#fff"/>
        <path d="M341.022 245.441l-4.89-7.362a.482.482 0 00.226.192l4.891 7.361a.586.586 0 01-.227-.191z" fill="#586069"/>
        <path d="M337.576 238.845l4.891 7.362-1.323 2.14-4.89-7.361 1.322-2.141z" fill="#fff"/>
        <path d="M338.568 238.514l4.891 7.345-.748 1.235-4.891-7.361.748-1.219z" fill="#586069"/>
        <path d="M339.787 239.071l4.89 7.344-1.966.679-4.891-7.361 1.967-.662z" fill="#fff"/>
        <path d="M339.7 239.82l4.89 7.361-3.446 1.166-4.89-7.361 3.446-1.166z" fill="#586069"/>
        <path d="M347.688 235.695l4.891 7.362a.574.574 0 00-.244-.209l-4.89-7.362a.48.48 0 01.243.209z" fill="#fff"/>
        <path d="M347.688 235.695l4.891 7.362a.604.604 0 01-.017.678l-4.891-7.361a.604.604 0 00.017-.679z" fill="#586069"/>
        <path d="M344.016 241.02l4.891 7.345-4.23-1.95-4.89-7.344 4.229 1.949zm3.046-4.925l4.908 7.344-3.063 4.926-4.891-7.345 3.046-4.925z" fill="#fff"/>
        <path d="M343.633 241.629l4.891 7.362-3.934-1.81-4.89-7.361 3.933 1.809zm4.055-5.255l4.891 7.344-3.063 4.925-4.891-7.344 3.063-4.925z" fill="#586069"/>
        <path d="M344.625 241.299l4.891 7.361c-.209.331-.662.488-.992.349l-4.891-7.362c.331.139.783-.018.992-.348z" fill="#586069"/>
        <path d="M354.615 247.843c-.504.817-.487 1.74-.052 2.419l-4.891-7.362c-.452-.661-.452-1.584.053-2.419 1.636 2.454 3.254 4.908 4.89 7.362-1.636-2.454-3.254-4.908-4.89-7.362.731-1.184 2.297-1.723 3.463-1.184l4.891 7.362c-1.166-.539-2.733 0-3.464 1.184z" fill="#fff"/>
        <path d="M354.563 250.262l-4.891-7.362c.192.296.488.539.836.713l4.891 7.362a2.234 2.234 0 01-.836-.713z" fill="#798087"/>
        <path d="M356.861 241.003l4.89 7.344-3.672-1.688-4.891-7.344 3.673 1.688z" fill="#fff"/>
        <path d="M357.696 241.699l4.891 7.362a1.841 1.841 0 00-.836-.696l-4.89-7.362c.348.157.626.4.835.696z" fill="#fff"/>
        <path d="M354.198 245.302l4.89 7.361-3.672-1.705-4.908-7.345 3.69 1.689z" fill="#798087"/>
        <path d="M356.861 241.003c1.166.539 1.514 1.949.765 3.133-.731 1.183-2.28 1.705-3.446 1.166l-3.672-1.689c-1.166-.539-1.532-1.931-.801-3.132.731-1.184 2.298-1.723 3.464-1.184l3.69 1.706z" fill="#798087"/>
        <path d="M357.696 241.699l4.891 7.362c.452.679.452 1.601-.053 2.436-.731 1.184-2.28 1.706-3.446 1.166l-4.89-7.361c1.166.539 2.697.017 3.446-1.166.504-.836.487-1.758.052-2.437z" fill="#798087"/>
        <path d="M377.554 239.454l4.891 7.344L53.258 95.11l-4.891-7.362 329.187 151.706z" fill="#D1D5DA"/>
        <path d="M354.389 276.802l4.891 7.362L30.092 132.458l-4.89-7.345 329.187 151.689z" fill="#fff"/>
        <path d="M347.445 235.486c.33.157.435.557.226.888l-3.046 4.925c-.209.33-.661.487-.992.348l-3.933-1.81-3.446 1.166 1.322-2.141-1.201-.557c-.33-.156-.435-.574-.226-.905l3.046-4.925c.209-.33.661-.487.992-.33l7.258 3.341zm-3.429 5.534l3.046-4.925-7.258-3.341-3.046 4.925 1.81.835-.765 1.236 1.966-.679 4.247 1.949z" fill="#586069"/>
        <path d="M336.758 237.679l3.046-4.943 7.258 3.359-3.046 4.925-4.229-1.949-1.967.662.748-1.219-1.81-.835z" fill="#fff"/>
        <path d="M48.367 87.748l329.187 151.689-23.165 37.347L25.202 125.113l23.165-37.365zm75.326 76.28c1.567.713 3.638.034 4.612-1.567.975-1.601.505-3.463-1.061-4.177l-63.805-29.411c-1.566-.714-3.62-.018-4.595 1.566-.974 1.584-.522 3.446 1.045 4.177l63.804 29.412zm-48.645-52.89c-1.967-.905-4.525-.017-5.761 1.967-1.218 1.984-.644 4.316 1.305 5.221l41.44 19.092c1.967.905 4.543.017 5.761-1.967 1.236-1.984.644-4.316-1.305-5.221l-41.44-19.092zm-18.745 3.359c3.116 1.427 7.258.035 9.225-3.132 1.966-3.168 1.026-6.927-2.089-8.354-3.115-1.427-7.258-.017-9.207 3.15-1.984 3.167-1.044 6.909 2.071 8.336zm288.322 126.802l3.046-4.925c.209-.331.104-.731-.226-.888l-7.258-3.341c-.331-.157-.783-.018-.992.33l-3.046 4.925c-.209.331-.104.749.226.905l1.201.557-1.322 2.141 3.446-1.166 3.933 1.81c.331.139.783-.018.992-.348zm9.573 4.003c1.166.539 2.697.017 3.446-1.166.731-1.184.4-2.594-.766-3.133l-3.672-1.688c-1.167-.54-2.733-.018-3.464 1.183-.731 1.184-.383 2.593.801 3.133l3.655 1.671z" fill="#fff"/>
        <path d="M48.106 86.721l-24.053 38.793L354.65 277.863l24.053-38.792L48.106 86.721zm306.283 190.081L25.202 125.113l23.165-37.347 329.187 151.688-23.165 37.348z" fill="#D1D5DA"/>
        <path d="M123.693 164.028c1.567.713 3.638.034 4.613-1.567.992-1.584.504-3.463-1.062-4.177l-63.805-29.411c-1.566-.714-3.62-.018-4.595 1.566-.365.592-.54 1.236-.522 1.827 0 .192.035.401.087.575.07.278.192.556.348.8.21.331.505.609.853.818.087.052.174.104.279.157l63.804 29.412z" fill="#798087"/>
        <path d="M377.554 239.454l4.891 7.344-23.165 37.366-4.891-7.362 23.165-37.348z" fill="#fff"/>
        <path d="M354.65 277.863l4.908 7.345-330.614-152.35-4.891-7.344L354.65 277.863z" fill="#D1D5DA"/>
        <path d="M378.703 239.071l4.891 7.344-24.036 38.793-4.908-7.344 24.053-38.793z" fill="#D1D5DA"/>
        <path d="M37.472 149.861a8.57 8.57 0 00-1.323 1.062c-1.636-2.454-3.255-4.908-4.89-7.362.4-.4.852-.766 1.322-1.062 1.636 2.454 3.255 4.908 4.89 7.362z" fill="#fff"/>
        <path d="M35.261 146.554c-.905-1.34-1.792-2.697-2.697-4.037a8.444 8.444 0 011.636-.818c1.636 2.454 3.254 4.908 4.89 7.362a7.49 7.49 0 00-1.636.818 109.259 109.259 0 00-2.193-3.325zm4.056 2.42c-.07.017-.14.052-.21.069-1.635-2.454-3.254-4.908-4.89-7.362.07-.017.14-.052.209-.069 1.619 2.454 3.255 4.908 4.89 7.362z" fill="#fff"/>
        <path d="M24.314 126.54l4.89 7.362L6.04 171.25l-4.89-7.344 23.165-37.366z" fill="#D1D5DA"/>
        <path d="M41.092 148.608a7.805 7.805 0 00-1.775.366c-1.636-2.454-3.255-4.908-4.891-7.362a7.868 7.868 0 011.775-.366c1.619 2.472 3.255 4.908 4.89 7.362zm-6.039 3.69c-.14.226-.261.435-.366.661-1.636-2.454-3.255-4.908-4.89-7.362.104-.226.226-.452.365-.661a3037.12 3037.12 0 004.89 7.362c-1.636-2.454-3.254-4.908-4.89-7.362a7.036 7.036 0 011.096-1.375c1.636 2.454 3.255 4.908 4.891 7.362a7.58 7.58 0 00-1.096 1.375z" fill="#fff"/>
        <path d="M34.687 152.959c-.07.139-.14.278-.191.435-1.636-2.454-3.255-4.908-4.891-7.362.052-.139.122-.278.191-.435 1.636 2.472 3.255 4.925 4.891 7.362z" fill="#fff"/>
        <path d="M34.496 153.394c-.14.348-.244.696-.331 1.044-1.636-2.454-3.255-4.908-4.89-7.361.069-.349.19-.697.33-1.045 1.636 2.454 3.272 4.908 4.89 7.362z" fill="#fff"/>
        <path d="M34.148 154.56c-1.637-2.454-3.255-4.908-4.891-7.362.017-.052.017-.087.035-.139 1.636 2.454 3.254 4.908 4.89 7.362-.017.052-.017.104-.035.139z" fill="#fff"/>
        <path d="M34.148 154.56a5.733 5.733 0 00-.035 2.175c-1.636-2.453-3.255-4.907-4.891-7.361a5.737 5.737 0 01.035-2.176l3.76 5.639c.19.279.382.574.574.853.104.139.191.296.295.435.035.07.105.157.14.209.034.087.104.156.121.226zm6.944-5.952c-.575-.87-1.166-1.758-1.74-2.628-.557-.853-1.132-1.705-1.689-2.541-.07-.104-.156-.226-.226-.33-.07-.105-.157-.227-.209-.331l-.627-.94c-.052-.087-.139-.209-.19-.296-.053-.087-.123-.209-.192-.296a6.43 6.43 0 013.185.54c.365.174.696.365.992.592 1.636 2.454 3.254 4.907 4.89 7.361a6.234 6.234 0 00-.992-.591 6.53 6.53 0 00-3.202-.54z" fill="#fff"/>
        <path d="M40.535 144.414l4.89 7.361a4.35 4.35 0 00-1.81-1.531c-2.523-1.166-5.9-.035-7.5 2.558-.75 1.253-1.01 2.663-.68 3.916.122.487.314.94.592 1.358l-4.89-7.362c-.279-.4-.47-.87-.592-1.358-.33-1.27-.07-2.68.678-3.915 1.602-2.594 4.978-3.725 7.502-2.559a4.345 4.345 0 011.81 1.532z" fill="#53B96A"/>
        <path d="M38.655 144.64l4.89 7.362-1.6-.749-4.908-7.361 1.618.748z" fill="#fff"/>
        <path d="M37.037 143.892l4.908 7.361-2.541 4.09-4.908-7.344 2.54-4.107zm9.415 7.066a5.217 5.217 0 00-1.183-1.219c-1.636-2.454-3.255-4.907-4.89-7.361.47.348.852.765 1.183 1.218a781.794 781.794 0 004.89 7.362zm-12.462-2.141l4.892 7.362-1.01 1.635-4.908-7.344 1.027-1.653z" fill="#fff"/>
        <path d="M38.655 144.64l4.89 7.362-2.54 4.09-4.89-7.345 2.54-4.107zm-2.541 4.107l4.89 7.345-1.6-.749-4.908-7.344 1.618.748z" fill="#53B96A"/>
        <path d="M35.61 149.565l4.89 7.362-1.618-.748-4.891-7.362 1.618.748z" fill="#fff"/>
        <path d="M35.61 149.565l4.89 7.362-1.027 1.636-4.89-7.344 1.026-1.654z" fill="#53B96A"/>
        <path d="M34.583 151.219l4.89 7.344-1.601-.749-4.908-7.344 1.619.749z" fill="#53B96A"/>
        <path d="M37.802 159.59a4.372 4.372 0 01-1.792-1.514l-4.89-7.362a4.242 4.242 0 001.792 1.514c2.54 1.166 5.917.017 7.501-2.558 1.636 2.454 3.255 4.907 4.89 7.344-1.635-2.454-3.254-4.908-4.89-7.362 1.114-1.792 1.08-3.811.122-5.273l4.89 7.362c.975 1.462.993 3.48-.121 5.273-1.602 2.593-4.96 3.742-7.502 2.576z" fill="#fff"/>
        <path d="M41.597 143.683l4.89 7.362c1.201 1.792 1.236 4.281-.139 6.474-1.967 3.167-6.109 4.577-9.224 3.132a5.278 5.278 0 01-2.228-1.879l-4.873-7.362a5.282 5.282 0 002.227 1.88c3.116 1.427 7.258.034 9.225-3.133 1.357-2.193 1.322-4.682.122-6.474z" fill="#53B96A"/>
        <path d="M46.487 151.027c-.017-.017-.035-.052-.052-.069-1.636-2.454-3.255-4.908-4.89-7.362.017.017.034.052.052.069 1.479 2.228 3.428 5.169 4.89 7.362zm-12.374 5.708c.121.731.4 1.41.8 2.019l-4.89-7.344a5.233 5.233 0 01-.801-2.019c1.636 2.454 3.255 4.891 4.89 7.344z" fill="#fff"/>
        <path d="M32.964 150.47l1.027-1.653 1.618.748-1.026 1.654-1.619-.749z" fill="#53B96A"/>
        <path d="M50.125 159.242c-.853 1.374-.836 2.923-.087 4.037l-4.89-7.362c-.75-1.113-.767-2.662.086-4.037 1.619 2.471 3.255 4.908 4.89 7.362-1.635-2.454-3.254-4.908-4.89-7.362 1.236-1.984 3.812-2.872 5.761-1.967l4.89 7.362c-1.949-.888-4.524-.017-5.76 1.967z" fill="#fff"/>
        <path d="M50.038 163.297l-4.89-7.362c.33.487.8.905 1.391 1.183l4.891 7.362a3.448 3.448 0 01-1.392-1.183z" fill="#505458"/>
        <path d="M39.682 176.593c-.679 1.096-.661 2.332-.07 3.219l-4.89-7.361c-.592-.888-.61-2.123.07-3.22 1.618 2.454 3.254 4.908 4.89 7.362-1.636-2.454-3.255-4.908-4.89-7.362.991-1.584 3.045-2.297 4.594-1.566l4.89 7.361c-1.566-.713-3.62-.017-4.594 1.567z" fill="#fff"/>
        <path d="M39.595 179.83l-4.89-7.362c.26.4.643.731 1.113.94l4.891 7.362a2.961 2.961 0 01-1.114-.94z" fill="#798087"/>
        <path d="M92.435 169.022l4.89 7.362-41.44-19.109-4.89-7.344 41.44 19.091z" fill="#fff"/>
        <path d="M93.827 170.206l4.89 7.361c-.33-.487-.8-.905-1.391-1.183l-4.891-7.362a3.45 3.45 0 011.392 1.184z" fill="#fff"/>
        <path d="M87.98 176.21l4.89 7.362-41.44-19.109-4.89-7.345 41.44 19.092z" fill="#505458"/>
        <path d="M93.827 170.206l4.89 7.361c.75 1.114.767 2.663-.086 4.038-1.218 1.984-3.812 2.872-5.76 1.967l-4.892-7.362c1.967.905 4.543.017 5.761-1.967.853-1.375.836-2.923.087-4.037z" fill="#505458"/>
        <path d="M92.435 169.022c1.967.905 2.541 3.237 1.305 5.221-1.218 1.984-3.811 2.872-5.76 1.967l-41.44-19.092c-1.967-.905-2.542-3.237-1.306-5.221 1.236-1.984 3.812-2.871 5.761-1.966l41.44 19.091z" fill="#505458"/>
        <path d="M103.191 197.077l4.891 7.344-63.805-29.395-4.89-7.361 63.804 29.412zm1.131.939l4.891 7.362a2.674 2.674 0 00-1.131-.957l-4.891-7.362c.487.244.87.575 1.131.957z" fill="#fff"/>
        <path d="M99.64 202.82l4.891 7.344-63.805-29.394-4.89-7.362L99.64 202.82zm4.682-4.804l4.891 7.362c.592.888.609 2.123-.07 3.22-.992 1.583-3.046 2.28-4.612 1.566l-4.89-7.362c1.566.714 3.637.035 4.612-1.566.678-1.079.661-2.315.069-3.22z" fill="#798087"/>
        <path d="M103.191 197.077c1.566.713 2.036 2.593 1.062 4.176-.993 1.584-3.046 2.28-4.613 1.567l-63.804-29.412c-1.567-.714-2.037-2.576-1.044-4.177.991-1.601 3.045-2.297 4.594-1.566l63.805 29.412z" fill="#798087"/>
        <path d="M315.142 271.25l4.908 7.362-3.063 4.925-4.891-7.362 3.046-4.925z" fill="#fff"/>
        <path d="M315.751 271.529l4.908 7.361-3.063 4.925-4.891-7.361 3.046-4.925z" fill="#586069"/>
        <path d="M323.392 274.278l4.89 7.345-7.257-3.342-4.891-7.362 7.258 3.359z" fill="#fff"/>
        <path d="M323.026 274.887l4.891 7.345-7.258-3.342-4.908-7.361 7.275 3.358z" fill="#586069"/>
        <path d="M316.134 270.919l4.891 7.362c-.331-.157-.783-.017-.992.331l-4.891-7.362c.209-.331.661-.47.992-.331zm-1.618 6.388l4.908 7.344-1.828-.836-4.891-7.361 1.811.853z" fill="#fff"/>
        <path d="M313.523 277.637l4.891 7.362-1.201-.557-4.89-7.362 1.2.557z" fill="#586069"/>
        <path d="M316.987 284.233l-4.891-7.362a.634.634 0 01.018-.696l4.89 7.362c-.156.226-.156.505-.017.696z" fill="#fff"/>
        <path d="M316.987 284.233l-4.891-7.362a.49.49 0 00.227.192l4.89 7.362a.414.414 0 01-.226-.192z" fill="#586069"/>
        <path d="M313.523 277.637l4.891 7.362-1.323 2.14-4.89-7.361 1.322-2.141z" fill="#fff"/>
        <path d="M314.516 277.307l4.908 7.344-.766 1.235-4.891-7.361.749-1.218z" fill="#586069"/>
        <path d="M315.734 277.863l4.891 7.345-1.967.678-4.891-7.361 1.967-.662z" fill="#fff"/>
        <path d="M315.647 278.612l4.89 7.361-3.446 1.166-4.89-7.361 3.446-1.166z" fill="#586069"/>
        <path d="M323.635 274.47l4.891 7.361a.572.572 0 00-.244-.208l-4.89-7.362a.726.726 0 01.243.209z" fill="#fff"/>
        <path d="M323.635 274.47l4.891 7.361a.606.606 0 01-.017.679l-4.891-7.361a.604.604 0 00.017-.679z" fill="#586069"/>
        <path d="M319.963 279.813l4.891 7.344-4.229-1.949-4.891-7.345 4.229 1.95z" fill="#fff"/>
        <path d="M323.026 274.887l4.891 7.345-3.063 4.925-4.891-7.344 3.063-4.926z" fill="#fff"/>
        <path d="M323.392 274.278c.33.157.435.557.226.888l-3.046 4.925c-.209.331-.661.487-.992.348l-3.933-1.81-3.446 1.166 1.322-2.14-1.2-.557c-.331-.157-.436-.575-.227-.905l3.046-4.925c.209-.331.661-.488.992-.331l7.258 3.341zm-3.429 5.535l3.046-4.926-7.258-3.341-3.046 4.925 1.811.836-.766 1.235 1.966-.679 4.247 1.95z" fill="#586069"/>
        <path d="M312.705 276.454l3.046-4.925 7.275 3.358-3.063 4.926-4.229-1.95-1.967.662.749-1.218-1.811-.853z" fill="#fff"/>
        <path d="M319.58 280.422l4.891 7.361-3.934-1.81-4.89-7.361 3.933 1.81zm4.055-5.256l4.891 7.344-3.063 4.925-4.891-7.344 3.063-4.925z" fill="#586069"/>
        <path d="M320.572 280.091l4.891 7.362c-.209.33-.661.487-.992.348l-4.891-7.362c.331.139.783-.017.992-.348z" fill="#586069"/>
        <path d="M330.562 286.635c-.504.818-.487 1.74-.052 2.419l-4.89-7.362c-.453-.661-.453-1.583.052-2.419 1.636 2.454 3.254 4.908 4.89 7.362-1.636-2.454-3.254-4.908-4.89-7.362.731-1.183 2.297-1.723 3.463-1.183l4.891 7.361c-1.166-.539-2.715-.017-3.464 1.184z" fill="#fff"/>
        <path d="M330.51 289.036l-4.89-7.361c.191.296.487.539.835.713l4.891 7.362a1.955 1.955 0 01-.836-.714z" fill="#798087"/>
        <path d="M332.808 279.795l4.89 7.345-3.672-1.689-4.891-7.361 3.673 1.705z" fill="#fff"/>
        <path d="M333.643 280.491l4.891 7.362a1.847 1.847 0 00-.836-.696l-4.89-7.362c.348.157.644.4.835.696z" fill="#fff"/>
        <path d="M330.145 284.094l4.89 7.362-3.672-1.706-4.891-7.344 3.673 1.688z" fill="#798087"/>
        <path d="M332.808 279.795c1.166.54 1.514 1.949.765 3.133-.748 1.183-2.28 1.705-3.446 1.166l-3.672-1.688c-1.166-.54-1.532-1.932-.801-3.133s2.298-1.723 3.464-1.183l3.69 1.705z" fill="#798087"/>
        <path d="M333.643 280.491l4.891 7.362c.452.679.452 1.601-.053 2.437-.731 1.183-2.28 1.705-3.446 1.166l-4.89-7.362c1.166.539 2.697.017 3.446-1.166.505-.835.487-1.758.052-2.437z" fill="#798087"/>
        <path d="M353.501 278.246l4.891 7.345L29.205 133.902l-4.891-7.362 329.187 151.706z" fill="#D1D5DA"/>
        <path d="M24.314 126.54l329.187 151.689-23.165 37.348L1.149 163.906l23.165-37.366zm75.326 76.28c1.567.713 3.638.035 4.613-1.567.974-1.601.504-3.463-1.062-4.176l-63.805-29.412c-1.566-.714-3.62-.018-4.595 1.566-.992 1.584-.522 3.446 1.045 4.177L99.64 202.82zm-48.645-52.889c-1.967-.905-4.525-.018-5.76 1.966-1.22 1.984-.645 4.316 1.304 5.221l41.44 19.092c1.967.905 4.543.017 5.761-1.967 1.236-1.984.644-4.316-1.305-5.221l-41.44-19.091zM32.25 153.29c3.116 1.427 7.258.034 9.225-3.133 1.966-3.167 1.027-6.927-2.089-8.354-3.115-1.427-7.257-.017-9.207 3.15-1.984 3.168-1.044 6.909 2.071 8.337zm288.322 126.801l3.046-4.925c.209-.331.104-.731-.226-.888l-7.258-3.341c-.331-.157-.783-.018-.992.331l-3.046 4.925c-.209.33-.104.748.227.905l1.2.557-1.322 2.14 3.446-1.166 3.933 1.81c.331.139.783-.017.992-.348zm9.573 4.003c1.166.539 2.697.017 3.446-1.166.731-1.184.4-2.593-.766-3.133l-3.672-1.688c-1.166-.539-2.733-.017-3.464 1.184-.731 1.183-.383 2.593.801 3.132l3.655 1.671z" fill="#fff"/>
        <path d="M38.708 142.865c2.54 1.166 3.306 4.212 1.705 6.805-1.601 2.575-4.96 3.724-7.501 2.558a4.246 4.246 0 01-2.385-2.872c-.33-1.27-.07-2.68.68-3.915 1.6-2.593 4.977-3.742 7.5-2.576zm-2.594 5.882l2.541-4.107-1.618-.748-2.541 4.107 1.618.748zm-1.531 2.472l1.01-1.636-1.62-.749-1.009 1.636 1.619.749z" fill="#fff"/>
        <path d="M39.369 141.803c3.115 1.427 4.055 5.187 2.088 8.354-1.966 3.167-6.109 4.577-9.224 3.133-3.115-1.427-4.055-5.169-2.088-8.337 1.984-3.167 6.108-4.594 9.224-3.15zm-6.457 10.425c2.54 1.166 5.917.017 7.501-2.558 1.601-2.593.836-5.622-1.705-6.805-2.524-1.166-5.9-.035-7.502 2.558-.748 1.253-1.01 2.663-.679 3.916.296 1.288 1.15 2.332 2.385 2.889z" fill="#53B96A"/>
        <path d="M330.336 315.594l4.908 7.362L6.039 171.25l-4.89-7.344 329.187 151.688z" fill="#fff"/>
        <path d="M24.053 125.514L0 164.306l330.597 152.35 24.053-38.793L24.053 125.514zm306.283 190.08L1.149 163.906l23.165-37.348 329.187 151.688-23.165 37.348z" fill="#D1D5DA"/>
        <path d="M36.114 148.747l2.541-4.107-1.618-.748-2.541 4.107 1.618.748z" fill="#53B96A"/>
        <path d="M353.501 278.246l4.891 7.345-23.148 37.365-4.908-7.362 23.165-37.348z" fill="#fff"/>
        <path d="M330.597 316.638l4.908 7.362L4.891 171.65 0 164.306l330.597 152.332z" fill="#D1D5DA"/>
        <path d="M354.65 277.863l4.908 7.345L335.505 324l-4.908-7.362 24.053-38.775z" fill="#D1D5DA"/>
    </g>
    <defs>
        <clipPath id="prefix__clip0">
            <path fill="#fff" d="M0 0h438v324H0z"/>
        </clipPath>
    </defs>
</svg>
